<?xml version="1.0" encoding="iso-8859-1"?>
<!-- Generator: Adobe Illustrator 16.0.0, SVG Export Plug-In . SVG Version: 6.00 Build 0)  -->
<!DOCTYPE svg PUBLIC "-//W3C//DTD SVG 1.1//EN" "http://www.w3.org/Graphics/SVG/1.1/DTD/svg11.dtd">
<svg version="1.1" id="Capa_1" xmlns="http://www.w3.org/2000/svg" xmlns:xlink="http://www.w3.org/1999/xlink" x="0px" y="0px"
	 width="535.5px" height="535.5px" viewBox="0 0 535.5 535.5" style="enable-background:new 0 0 535.5 535.5;" xml:space="preserve"
	>
<g>
	<path d="M191.25,521.156c0,7.918,6.426,14.344,14.344,14.344h133.875c7.918,0,14.344-6.426,14.344-14.344v-14.344H191.25V521.156z"
		/>
	<path d="M248.625,0v19.125h-13.253c-14.296,0-24.997,10.624-24.997,23.725v0.354c0,1.578,0.172,3.118,0.469,4.609h37.781h47.812
		h37.743c0.325-1.492,0.507-3.031,0.507-4.609V42.85c0-13.101-11.59-23.725-25.896-23.725h-12.354V0H248.625z"/>
	<path d="M143.438,93.799v357.475c0,17.471,18.943,36.414,36.423,36.414h12.269h160.803h12.269c17.48,0,26.861-18.943,26.861-36.424
		V93.799c0-17.48-9.381-26.861-26.861-26.861h-1.826h-54.583h-73.42h-55.511C162.381,66.938,143.438,76.318,143.438,93.799z
		 M229.5,459v-19.125h86.062V459H229.5z M219.938,133.875h38.25v-38.25h19.125v38.25h38.25V153h-38.25v38.25h-19.125V153h-38.25
		V133.875z"/>
</g>
<g>
</g>
<g>
</g>
<g>
</g>
<g>
</g>
<g>
</g>
<g>
</g>
<g>
</g>
<g>
</g>
<g>
</g>
<g>
</g>
<g>
</g>
<g>
</g>
<g>
</g>
<g>
</g>
<g>
</g>
</svg>
