<?xml version="1.0" encoding="iso-8859-1"?>
<!-- Generator: Adobe Illustrator 16.0.0, SVG Export Plug-In . SVG Version: 6.00 Build 0)  -->
<!DOCTYPE svg PUBLIC "-//W3C//DTD SVG 1.1//EN" "http://www.w3.org/Graphics/SVG/1.1/DTD/svg11.dtd">
<svg version="1.1" id="Capa_1" xmlns="http://www.w3.org/2000/svg" xmlns:xlink="http://www.w3.org/1999/xlink" x="0px" y="0px"
	 width="535.5px" height="535.5px" viewBox="0 0 535.5 535.5" style="enable-background:new 0 0 535.5 535.5;" xml:space="preserve"
	>
<g>
	<path d="M191.25,521.156c0,7.918,6.426,14.344,14.344,14.344h133.875c7.918,0,14.344-6.426,14.344-14.344v-14.344H191.25V521.156z"
		/>
	<path d="M248.625,0v19.125h-13.253c-14.296,0-24.997,10.624-24.997,23.725v0.354c0,1.578,0.172,3.118,0.469,4.609h37.781h47.812
		h37.743c0.325-1.492,0.507-3.031,0.507-4.609V42.85c0-13.101-11.59-23.725-25.896-23.725h-12.354V0H248.625z"/>
	<path d="M392.062,451.264V93.799c0-17.48-9.381-26.861-26.861-26.861h-1.826h-54.583h-73.42h-55.511
		c-17.48,0-36.423,9.381-36.423,26.861v357.475c0,17.471,18.943,36.414,36.423,36.414h12.269h160.803h12.269
		C382.682,487.688,392.062,468.744,392.062,451.264z M364.255,298.178L362.639,299l-34.894,17.662l-11.733-22.845l-2.897-5.633
		l3.481-1.788l32.914-16.906L364.255,298.178z M278.584,190.944c9.859,0,20.445,2.018,30.17,7.985
		c4.217,6.77,13.397,22.042,13.397,22.042l23.447-10.347l-26.44,49.61l-51.112-9.17l21.516-10.844l-4.695-13.024l-11.055-6.875
		l-33.048-20.54l-0.125-0.077C240.64,199.694,258.035,190.944,278.584,190.944z M219.938,363.375v-3.251v-34.999h28.831h9.419v38.25
		H219.938z M235.17,205.049l1.54,0.956l33.211,20.646l-13.426,21.889l-3.309,5.393l-3.337-2.046l-31.547-19.354L235.17,205.049z
		 M176.744,302.452c3.567-7.134,14.114-22.94,14.114-22.94l-20.923-14.573l56.266-3.414l17.901,48.367l-22.118-12.67l-11.609,10.815
		v13.023v36.223v2.841C210.375,360.124,176.744,337.643,176.744,302.452z M331.283,364.255c-2.754,0.028-6.675,0.038-10.624,0.038
		c-7.516,0-15.166-0.038-15.166-0.038l-3.328,25.407l-28.678-48.348l34.377-38.92l-1.912,24.021l13.569,2.754l11.618-5.881
		l34.722-17.576l0.134-0.066C365.995,305.637,362.581,348.171,331.283,364.255z"/>
</g>
<g>
</g>
<g>
</g>
<g>
</g>
<g>
</g>
<g>
</g>
<g>
</g>
<g>
</g>
<g>
</g>
<g>
</g>
<g>
</g>
<g>
</g>
<g>
</g>
<g>
</g>
<g>
</g>
<g>
</g>
</svg>
