<?xml version="1.0" encoding="iso-8859-1"?>
<!-- Generator: Adobe Illustrator 16.0.0, SVG Export Plug-In . SVG Version: 6.00 Build 0)  -->
<!DOCTYPE svg PUBLIC "-//W3C//DTD SVG 1.1//EN" "http://www.w3.org/Graphics/SVG/1.1/DTD/svg11.dtd">
<svg version="1.1" id="Capa_1" xmlns="http://www.w3.org/2000/svg" xmlns:xlink="http://www.w3.org/1999/xlink" x="0px" y="0px"
	 width="468.562px" height="468.562px" viewBox="0 0 468.562 468.562" style="enable-background:new 0 0 468.562 468.562;"
	 xml:space="preserve">
<g>
	<path d="M396.844,76.5c5.278,0,9.562-7.411,9.562-14.344s-4.284-14.344-9.562-14.344h-9.562h-306h-9.562
		c-5.278,0-9.562,7.411-9.562,14.344S66.44,76.5,71.719,76.5h9.562v363.375h-9.562c-5.278,0-9.562,7.306-9.562,14.344
		s4.284,14.344,9.562,14.344h9.562h306h9.562c5.278,0,9.562-7.306,9.562-14.344s-4.284-14.344-9.562-14.344h-9.562V76.5H396.844z
		 M228.458,372.249c-0.87,0.105-1.568,0.162-2.037,0.162c-7.468,0.048-71.145-1.539-71.748-87.841
		c-0.593-86.301,85.135-135.29,85.135-135.29c-17.48,87.104,55.653,91.341,56.064,151.24c0.239,34.674-20.56,53.216-39.579,62.749
		c-17.337-23.533-46.751-67.559-49.658-99.01C206.646,264.25,207.21,325.508,228.458,372.249z"/>
	<rect x="109.969" width="47.812" height="28.688"/>
</g>
<g>
</g>
<g>
</g>
<g>
</g>
<g>
</g>
<g>
</g>
<g>
</g>
<g>
</g>
<g>
</g>
<g>
</g>
<g>
</g>
<g>
</g>
<g>
</g>
<g>
</g>
<g>
</g>
<g>
</g>
</svg>
