<?xml version="1.0" encoding="iso-8859-1"?>
<!-- Generator: Adobe Illustrator 16.0.0, SVG Export Plug-In . SVG Version: 6.00 Build 0)  -->
<!DOCTYPE svg PUBLIC "-//W3C//DTD SVG 1.1//EN" "http://www.w3.org/Graphics/SVG/1.1/DTD/svg11.dtd">
<svg version="1.1" id="Capa_1" xmlns="http://www.w3.org/2000/svg" xmlns:xlink="http://www.w3.org/1999/xlink" x="0px" y="0px"
	 width="538.503px" height="538.502px" viewBox="0 0 538.503 538.502" style="enable-background:new 0 0 538.503 538.502;"
	 xml:space="preserve">
<g>
	<path d="M384.747,92.891l-58.369,103.246c21.037,15.721,35.314,40.431,38.584,69.118h116.739
		C477.915,179.183,440.362,129.171,384.747,92.891z"/>
	<path d="M267.75,366.665c-24.26,0-46.187-9.123-63.342-23.686l-58.867,101.496c34.693,24.107,76.768,38.336,122.219,38.336
		c42.343,0,81.711-12.432,114.97-33.611l-58.102-100.865C308.534,359.78,288.988,366.665,267.75,366.665z"/>
	<path d="M210.872,192.542l-58.207-98.666c-56.639,36.127-95.032,85.307-98.867,171.37h116.739
		C173.904,236.558,188.85,208.224,210.872,192.542z"/>
	<circle cx="264.126" cy="269.251" r="53.253"/>
	<path d="M269.251,0C120.784,0,0,120.784,0,269.252c0,148.467,120.784,269.25,269.251,269.25
		c148.468,0,269.252-120.783,269.252-269.25C538.503,120.784,417.729,0,269.251,0z M269.251,519.377
		c-137.919,0-250.126-112.205-250.126-250.125c0-137.92,112.207-250.127,250.126-250.127c137.92,0,250.127,112.207,250.127,250.127
		C519.378,407.172,407.171,519.377,269.251,519.377z"/>
</g>
<g>
</g>
<g>
</g>
<g>
</g>
<g>
</g>
<g>
</g>
<g>
</g>
<g>
</g>
<g>
</g>
<g>
</g>
<g>
</g>
<g>
</g>
<g>
</g>
<g>
</g>
<g>
</g>
<g>
</g>
</svg>
