<?xml version="1.0" encoding="iso-8859-1"?>
<!-- Generator: Adobe Illustrator 16.0.0, SVG Export Plug-In . SVG Version: 6.00 Build 0)  -->
<!DOCTYPE svg PUBLIC "-//W3C//DTD SVG 1.1//EN" "http://www.w3.org/Graphics/SVG/1.1/DTD/svg11.dtd">
<svg version="1.1" id="Capa_1" xmlns="http://www.w3.org/2000/svg" xmlns:xlink="http://www.w3.org/1999/xlink" x="0px" y="0px"
	 width="536.44px" height="536.44px" viewBox="0 0 536.44 536.44" style="enable-background:new 0 0 536.44 536.44;"
	 xml:space="preserve">
<g>
	<path d="M239.069,57.427c-105.675,0-191.651,85.977-191.651,191.652c0,105.674,85.976,191.651,191.651,191.651
		c105.676,0,191.652-85.977,191.652-191.651C430.721,143.403,344.745,57.427,239.069,57.427z M239.069,76.552
		c6.981,0,13.828,0.536,20.597,1.339c-2.371,7.325-6.741,12.958-6.741,12.958s-4.963,16.132-16.132,17.375s-24.824,0-31.021,9.926
		c-6.206,9.926-4.963,27.301-14.889,17.375c-9.926-9.926-1.243-10.691-11.169-20.856s-12.412-10.165-17.375-10.165
		c-1.616,0-3.461-3.107-4.829-7.449C181.79,83.992,209.549,76.552,239.069,76.552z M137.314,109.973
		c0.124,0.038,0.249,0.066,0.373,0.114c0,0-8.157,4.036,6.732,10.242c14.889,6.206,18.322,18.494,11.465,18.016
		s-34.731,3.318-9.094,10.768c25.637,7.449,23.524,16.17,12.125,19.899c-11.398,3.72-8.96-12.393-11.446,3.739
		c-2.486,16.132-4.982,14.898-13.053,17.385s-22.969,14.898-22.969,23.581s-4.973,13.55,4.963,20.99
		c9.926,7.449-3.108,21.066-7.803,11.14c-5.632-11.905-9.582-18.475-15.778-19.718c-6.206-1.243-14.2,8.683,0,18.618
		c14.2,9.926,14.889,16.132,14.889,23.581c0,7.449,10.28,7.449,18.169,6.206s24.088,19.852,29.644,28.544
		c5.546,8.684,15.482,17.375,29.127,21.096c13.655,3.72,18.618,12.412,11.169,18.618s-8.683,21.095-17.375,24.824
		c-8.692,3.72-9.926,14.889-14.889,19.852c-3.137,3.137-6.072,7.43-8.53,12.24c-7.163-4.007-13.933-8.578-20.416-13.521
		c-0.382-1.731-0.679-3.396-0.832-4.925c-1.243-12.412-2.486-27.301-9.926-33.507c-7.449-6.206-12.412-14.89-14.889-24.824
		c-2.486-9.927,3.72-24.825-1.243-34.751s-4.963-0.621-14.889-14.582c-9.926-13.961-9.926-13.961-16.132-25.13
		c-3.729-6.713-6.091-17.901-7.401-29.261C77.128,174.472,102.125,135.753,137.314,109.973z M379.504,217.427
		c-14.889-8.683-11.17,1.243-11.17,1.243s0,0,9.926,8.683s17.375,12.412,13.656,24.576c-3.721,12.163-9.926,1.492-22.338,11.418
		c-12.412,9.925,14.889,12.412,16.131,27.3c1.244,14.889-14.889,7.449-22.338,22.338s-1.242,31.021-4.963,44.676
		c-3.719,13.646-34.75,32.264-46.014,38.47c-11.266,6.206-3.625-13.655,0-27.301c3.623-13.655-8.588-28.544-8.588-53.358
		s-7.449-17.375-29.787-17.375c-22.338,0-32.264-12.412-34.75-35.984c-2.486-23.581,18.618-47.162,28.544-54.602
		c9.925-7.449,23.582-14.889,37.228-7.449c13.654,7.449,18.617,14.889,33.506,14.889s14.889-4.963,23.582-11.169
		c8.682-6.206-12.412-13.655-24.824-12.354c-12.412,1.291-9.926-7.497-26.059-13.703c-16.131-6.206-22.338,6.206-27.301,8.683
		c-4.963,2.486-22.338,9.926-24.069,0s9.18-11.169,20.348-11.169c11.17,0,1.244-8.683-2.486-14.889
		c-3.719-6.206-11.168-6.206-16.542-11.054s6.617-13.77,19.029-10.806c12.412,2.964,7.449,11.924,21.096,10.681s0-13.646,0-25.675
		c0-12.02,14.889-11.561,24.824-16.352c9.926-4.791,22.338,20.932,31.021,31.336c3.088,3.701,7.582,1.683,12.096-2.391
		c22.023,25.36,36.758,57.155,40.975,92.24C391.362,235.787,392.776,225.172,379.504,217.427z"/>
	<path d="M175.995,507.667l-18.513,28.773l96.811-34.491l-93.272-43.175l15.367,29.472c-17.805-3.911-35.219-9.782-51.867-17.72
		C81.354,449.919,45.792,417.32,21.656,376.25c-2.677-4.552-8.539-6.082-13.091-3.395c-4.552,2.677-6.072,8.539-3.395,13.091
		c26.077,44.37,64.49,79.579,111.117,101.841C135.392,496.909,155.464,503.479,175.995,507.667z"/>
	<path d="M453.747,104.895l10.949,102.195l17.441-28.449c19.785,58.608,16.057,123.308-10.699,179.325
		c-3.787,7.947-8.061,15.76-12.68,23.228c-2.783,4.485-1.396,10.376,3.088,13.158c1.568,0.985,3.309,1.435,5.021,1.435
		c3.203,0,6.33-1.606,8.137-4.533c4.992-8.051,9.602-16.476,13.693-25.054c29.414-61.602,32.99-132.899,10.309-197.102l34.109,1.081
		L453.747,104.895z"/>
	<path d="M200.245,8.132c-0.774-5.221-5.508-8.75-10.882-8.042C131.95,8.696,79.308,36.533,39.806,78.483L25.299,47.769
		L3.325,148.166L89.32,91.88l-33.421-2.582c36.328-37.552,84.179-62.472,136.304-70.285
		C197.424,18.221,201.029,13.354,200.245,8.132z"/>
</g>
<g>
</g>
<g>
</g>
<g>
</g>
<g>
</g>
<g>
</g>
<g>
</g>
<g>
</g>
<g>
</g>
<g>
</g>
<g>
</g>
<g>
</g>
<g>
</g>
<g>
</g>
<g>
</g>
<g>
</g>
</svg>
