<?xml version="1.0" encoding="iso-8859-1"?>
<!-- Generator: Adobe Illustrator 16.0.0, SVG Export Plug-In . SVG Version: 6.00 Build 0)  -->
<!DOCTYPE svg PUBLIC "-//W3C//DTD SVG 1.1//EN" "http://www.w3.org/Graphics/SVG/1.1/DTD/svg11.dtd">
<svg version="1.1" id="Capa_1" xmlns="http://www.w3.org/2000/svg" xmlns:xlink="http://www.w3.org/1999/xlink" x="0px" y="0px"
	 width="518.43px" height="518.431px" viewBox="0 0 518.43 518.431" style="enable-background:new 0 0 518.43 518.431;"
	 xml:space="preserve">
<g>
	<path d="M135.475,124.169c0,68.458,55.702,124.16,124.159,124.16s124.159-55.702,124.159-124.16S328.092,0,259.634,0
		S135.475,55.701,135.475,124.169z M355.479,102.567c-10.165-5.929-7.621,0.851-7.621,0.851s0,0,6.78,5.929
		s11.858,8.472,9.313,16.773c-2.544,8.3-6.779,1.014-15.242,7.793c-8.473,6.78,10.165,8.472,11.006,18.637
		s-10.165,5.078-15.243,15.243s-0.851,21.171-3.385,30.495c-2.544,9.314-23.715,22.022-31.403,26.259
		c-7.688,4.236-2.477-9.313,0-18.637c2.477-9.314-5.862-19.479-5.862-36.424c0-16.945-5.077-11.857-20.33-11.857
		c-15.242,0-22.021-8.472-23.715-24.566c-1.692-16.094,12.709-32.187,19.479-37.265c6.77-5.078,16.094-10.165,25.408-5.078
		c9.313,5.078,12.709,10.165,22.863,10.165c10.155,0,10.165-3.385,16.095-7.621c5.929-4.236-8.473-9.314-16.936-8.434
		c-8.472,0.88-6.78-5.116-17.786-9.352c-11.006-4.236-15.243,4.236-18.637,5.929c-3.385,1.693-15.243,6.78-16.428,0
		c-1.187-6.78,6.263-7.621,13.885-7.621s0.851-5.929-1.693-10.165c-2.544-4.236-7.621-4.236-11.293-7.545s4.515-9.4,12.986-7.373
		s5.078,8.138,14.401,7.296c9.313-0.851,0-9.314,0-17.519c0-8.205,10.165-7.889,16.935-11.159c0.421-0.201,0.861-0.105,1.291-0.153
		c3.146,1.979,6.188,4.093,9.113,6.359c3.882,4.953,7.669,11.475,10.767,15.185c1.501,1.798,3.509,1.501,5.643,0.249
		c14.889,17.05,24.843,38.479,27.55,62.137C363.645,113.889,363.76,107.396,355.479,102.567z M259.634,9.562
		c4.361,0,8.645,0.296,12.881,0.775c-1.578,3.433-3.423,5.843-3.423,5.843s-3.385,11.006-11.006,11.858
		c-7.621,0.851-16.936,0-21.171,6.78c-4.236,6.78-3.386,18.637-10.165,11.857c-6.78-6.78-0.852-7.296-7.621-14.229
		c-6.78-6.942-8.473-6.942-11.858-6.942c-0.679,0-1.415-0.822-2.113-2.123C221.355,14.573,239.917,9.562,259.634,9.562z
		 M189.99,33.363c0.899,0.87,2.448,1.846,5.05,2.936c10.165,4.236,12.508,12.622,7.821,12.288
		c-4.686-0.325-23.705,2.266-6.206,7.344s16.056,11.035,8.272,13.579c-7.784,2.544-6.12-8.453-7.813,2.553
		c-1.692,11.006-3.403,10.174-8.911,11.867c-5.509,1.693-15.674,10.165-15.674,16.094c0,5.929-3.395,9.247,3.386,14.325
		c6.779,5.078-2.123,14.372-5.326,7.602c-3.844-8.128-6.541-12.613-10.767-13.454c-4.236-0.851-9.696,5.929,0,12.709
		c9.696,6.78,10.165,11.006,10.165,16.094c0,5.088,7.02,5.078,12.403,4.236c5.384-0.851,16.438,13.55,20.234,19.479
		c3.787,5.929,10.566,11.857,19.88,14.401s12.709,8.472,7.621,12.709c-5.078,4.236-5.93,14.401-11.857,16.935
		c-5.929,2.544-6.78,10.165-10.165,13.55c-1.511,1.511-2.945,3.452-4.284,5.565c-5.698-3.194-11.111-6.847-16.161-10.94
		c-0.821-8.224-1.807-17.681-6.664-21.726c-5.078-4.236-8.473-10.165-10.165-16.935c-1.693-6.78,2.544-16.935-0.852-23.715
		c-3.385-6.78-3.385-0.421-10.165-9.955c-6.78-9.524-6.78-9.524-11.006-17.155c-1.358-2.448-2.41-5.862-3.27-9.61
		C148.413,81.262,165.214,52.412,189.99,33.363z"/>
	<path d="M129.066,178.829c0,0-5.264-15.821-23.998-9.646c-17.035,5.616-10.043,24.646-10.043,24.646l17.93,54.388
		c0,0,6.318,16.487,0.055,19.694c-9.378,4.685-17.788-13.126-17.788-13.126l-34.678-62.829L80.23,86.937
		c0,0,6.277-21.577-8.404-26.956c-10.435-3.542-18.12-0.111-24.502,17.585C40.765,96.315,7.85,188.208,7.85,188.208v113.46
		l94.798,127.13l2.913,89.633h107.02V361.686L129.066,178.829z"/>
	<path d="M305.85,361.686v156.745h107.02l2.912-89.634l94.799-127.13v-113.46c0,0-32.914-91.893-39.475-110.642
		c-6.382-17.696-14.067-21.127-24.502-17.585c-14.681,5.379-8.404,26.956-8.404,26.956l19.687,105.019l-34.678,62.829
		c0,0-8.41,17.812-17.788,13.126c-6.264-3.207,0.055-19.694,0.055-19.694l17.93-54.388c0,0,6.992-19.03-10.043-24.646
		c-18.733-6.176-23.998,9.646-23.998,9.646L305.85,361.686z"/>
</g>
<g>
</g>
<g>
</g>
<g>
</g>
<g>
</g>
<g>
</g>
<g>
</g>
<g>
</g>
<g>
</g>
<g>
</g>
<g>
</g>
<g>
</g>
<g>
</g>
<g>
</g>
<g>
</g>
<g>
</g>
</svg>
