<?xml version="1.0" encoding="iso-8859-1"?>
<!-- Generator: Adobe Illustrator 16.0.0, SVG Export Plug-In . SVG Version: 6.00 Build 0)  -->
<!DOCTYPE svg PUBLIC "-//W3C//DTD SVG 1.1//EN" "http://www.w3.org/Graphics/SVG/1.1/DTD/svg11.dtd">
<svg version="1.1" id="Capa_1" xmlns="http://www.w3.org/2000/svg" xmlns:xlink="http://www.w3.org/1999/xlink" x="0px" y="0px"
	 width="351.524px" height="351.525px" viewBox="0 0 351.524 351.525" style="enable-background:new 0 0 351.524 351.525;"
	 xml:space="preserve">
<g>
	<path d="M302.477,164.105l-127-93.375l-128,93.375v163.5h255V164.105z M199.75,297.515c-13.599-18.457-36.668-52.987-38.948-77.655
		c0,0,0.443,48.045,17.106,84.705c-0.682,0.082-1.229,0.127-1.598,0.127c-5.858,0.038-55.8-1.207-56.273-68.895
		c-0.465-67.688,66.772-106.11,66.772-106.11c-13.71,68.318,43.65,71.641,43.973,118.62
		C230.979,275.503,214.667,290.045,199.75,297.515z"/>
	<path d="M15.028,170.916c3.131,0,6.276-0.975,8.971-2.977L175.477,57.69l151.965,110.977c6.614,5.017,16.028,3.705,21.035-2.895
		c5.007-6.608,3.709-16.013-2.898-21.015L184.612,26.963c-5.345-4.035-12.702-4.058-18.055-0.067L6.027,143.894
		c-6.644,4.958-8.003,14.363-3.04,21C5.944,168.838,10.457,170.916,15.028,170.916z"/>
</g>
<g>
</g>
<g>
</g>
<g>
</g>
<g>
</g>
<g>
</g>
<g>
</g>
<g>
</g>
<g>
</g>
<g>
</g>
<g>
</g>
<g>
</g>
<g>
</g>
<g>
</g>
<g>
</g>
<g>
</g>
</svg>
