<?xml version="1.0" encoding="iso-8859-1"?>
<!-- Generator: Adobe Illustrator 16.0.0, SVG Export Plug-In . SVG Version: 6.00 Build 0)  -->
<!DOCTYPE svg PUBLIC "-//W3C//DTD SVG 1.1//EN" "http://www.w3.org/Graphics/SVG/1.1/DTD/svg11.dtd">
<svg version="1.1" id="Capa_1" xmlns="http://www.w3.org/2000/svg" xmlns:xlink="http://www.w3.org/1999/xlink" x="0px" y="0px"
	 width="573.148px" height="573.148px" viewBox="0 0 573.148 573.148" style="enable-background:new 0 0 573.148 573.148;"
	 xml:space="preserve">
<g>
	<path d="M236.522,84.179l-48.425,41.989c-18.915-13.636-40.067-16.333-61.869-19c-16.123-1.979-32.79-4.016-50.538-10.356
		C17.761,76.127,33.271,7.354,33.969,4.437L15.351,0C8.045,30.457,9.91,93.636,69.255,114.836
		c19.737,7.048,38.279,9.324,54.64,11.332c19.183,2.353,35.343,4.418,49.381,12.871l-81.281,70.476l39.665,118.691l212.402,244.943
		l216.744-187.941L348.403,140.253L236.522,84.179z M252.282,235.869c-7.775,6.751-17.729,10.461-28.019,10.461
		c-12.412,0-24.193-5.374-32.331-14.746c-15.443-17.824-13.512-44.896,4.294-60.339c1.128-0.975,2.391-1.75,3.605-2.601
		c1.473,2.688,2.917,5.565,4.341,8.645c1.319,2.859,2.63,5.891,3.911,9.113c-9.161,8.645-10.021,23.045-1.693,32.646
		c8.205,9.467,23.878,10.595,33.354,2.371c4.772-4.141,7.65-9.887,8.1-16.189s-1.578-12.393-5.728-17.165
		c-4.093-4.714-9.888-7.487-16.074-7.965c-1.33-3.318-2.678-6.55-4.064-9.562c-1.473-3.175-2.945-6.312-4.475-9.151
		c2.219-0.354,4.466-0.603,6.732-0.603c12.422,0,24.203,5.374,32.331,14.746C272.018,193.344,270.096,220.416,252.282,235.869z
		 M408.169,386.564c-1.855,30.064-20.98,44.904-38.03,52.029c-13.627-21.43-36.49-61.334-37.15-88.76
		c0,0-3.155,53.121,12.479,94.889c-0.766,0.039-1.368,0.049-1.77,0.02c-6.474-0.402-61.573-5.564-56.954-80.393
		c4.618-74.826,81.835-112.187,81.835-112.187C348.24,326.607,411.372,334.631,408.169,386.564z"/>
</g>
<g>
</g>
<g>
</g>
<g>
</g>
<g>
</g>
<g>
</g>
<g>
</g>
<g>
</g>
<g>
</g>
<g>
</g>
<g>
</g>
<g>
</g>
<g>
</g>
<g>
</g>
<g>
</g>
<g>
</g>
</svg>
