<?xml version="1.0" encoding="iso-8859-1"?>
<!-- Generator: Adobe Illustrator 16.0.0, SVG Export Plug-In . SVG Version: 6.00 Build 0)  -->
<!DOCTYPE svg PUBLIC "-//W3C//DTD SVG 1.1//EN" "http://www.w3.org/Graphics/SVG/1.1/DTD/svg11.dtd">
<svg version="1.1" id="Capa_1" xmlns="http://www.w3.org/2000/svg" xmlns:xlink="http://www.w3.org/1999/xlink" x="0px" y="0px"
	 width="580.602px" height="580.602px" viewBox="0 0 580.602 580.602" style="enable-background:new 0 0 580.602 580.602;"
	 xml:space="preserve">
<g>
	<path d="M132.335,342.937c67.989,0,124.121-51.484,131.628-117.504l0.611-8.96c0.097-2.027,0.307-4.026,0.307-6.082
		c0-73.086-59.46-132.536-132.546-132.536C60.626,77.845,2.18,135.125,0,206.308c0,0,0,4.438,0.075,9.438
		c0.074,4.937,0.632,9.688,0.632,9.688C8.213,291.452,64.345,342.937,132.335,342.937z M54.534,292.696
		c4.973-3.032,10.394-6.044,16.381-8.846c6.436,12.756,13.732,23.543,20.569,32.227C77.656,310.712,65.139,302.727,54.534,292.696z
		 M73.076,225.433h48.061v25.742c-14.478,1.023-27.846,3.997-39.981,8.109C77.302,248.967,74.405,237.635,73.076,225.433z
		 M79.387,168.202c12.613,4.37,26.574,7.43,41.75,8.377v29.73H72.483C72.999,192.604,75.553,179.849,79.387,168.202z
		 M189.777,206.309h-49.515v-29.758c15.415-0.994,29.634-4.169,42.505-8.683C186.659,179.59,189.26,192.472,189.777,206.309z
		 M181.237,258.95c-12.393-4.15-26.106-7.038-40.975-7.879v-25.637h48.922C187.874,237.5,185.024,248.718,181.237,258.95z
		 M121.137,320.579c-7.593-7.516-21.21-22.662-32.178-43.768c9.888-3.223,20.636-5.575,32.178-6.512V320.579z M140.262,270.196
		c11.924,0.775,23.046,3.022,33.201,6.283c-11.427,22.099-25.78,37.733-33.201,44.953V270.196L140.262,270.196z M140.262,157.425
		V99.839c7.956,7.938,23.715,25.608,35.391,50.28C164.847,153.838,152.999,156.478,140.262,157.425z M121.137,157.454
		c-12.517-0.889-24.117-3.423-34.693-7.019c11.303-24.002,26.459-41.386,34.693-49.725V157.454z M169.791,317.329
		c7.162-8.951,14.927-20.293,21.707-33.794c6.589,3.079,12.584,6.416,17.958,9.792C198.125,303.864,184.68,312.098,169.791,317.329z
		 M222.49,278.936c-6.809-4.437-14.631-8.884-23.36-12.928c4.542-12.269,7.984-25.8,9.352-40.564h36.165
		C241.978,245.371,234.137,263.645,222.49,278.936z M208.912,206.309c-0.535-16.629-3.624-31.958-8.281-45.757
		c9.39-4.494,17.805-9.429,25.102-14.372c11.877,17.212,19.021,37.868,19.823,60.129H208.912z M213.52,131.357
		c-5.929,3.93-12.632,7.841-20.014,11.437c-7.478-16.094-16.495-29.491-24.614-39.656
		C185.961,108.972,201.204,118.706,213.52,131.357z M92.402,104.372c-7.937,10.088-16.61,23.16-23.839,38.795
		c-6.837-3.328-13.034-6.923-18.57-10.538C61.716,120.227,76.165,110.511,92.402,104.372z M37.962,147.595
		c6.866,4.59,14.755,9.17,23.533,13.359c-4.571,13.693-7.621,28.879-8.147,45.355H19.124
		C19.899,184.659,26.669,164.52,37.962,147.595z M53.779,225.433c1.377,14.898,4.877,28.544,9.476,40.889
		c-8.042,3.739-15.243,7.813-21.63,11.858c-11.332-15.128-18.972-33.134-21.592-52.747H53.779z"/>
	<path d="M168.19,355.54c0,0-19.214,6.395-11.714,29.145c6.82,20.686,29.93,12.195,29.93,12.195l66.048-21.773
		c0,0,20.021-7.672,23.916-0.068c5.689,11.389-15.941,21.604-15.941,21.604l-76.299,42.111L56.595,414.847
		c0,0-26.202-7.621-32.735,10.207c-4.301,12.672-0.134,22.006,21.355,29.756c22.768,7.967,134.363,47.938,134.363,47.938h137.785
		l154.389-115.125l108.85-3.537V254.121h-190.35L168.19,355.54z"/>
</g>
<g>
</g>
<g>
</g>
<g>
</g>
<g>
</g>
<g>
</g>
<g>
</g>
<g>
</g>
<g>
</g>
<g>
</g>
<g>
</g>
<g>
</g>
<g>
</g>
<g>
</g>
<g>
</g>
<g>
</g>
</svg>
