<?xml version="1.0" encoding="iso-8859-1"?>
<!-- Generator: Adobe Illustrator 16.0.0, SVG Export Plug-In . SVG Version: 6.00 Build 0)  -->
<!DOCTYPE svg PUBLIC "-//W3C//DTD SVG 1.1//EN" "http://www.w3.org/Graphics/SVG/1.1/DTD/svg11.dtd">
<svg version="1.1" id="Capa_1" xmlns="http://www.w3.org/2000/svg" xmlns:xlink="http://www.w3.org/1999/xlink" x="0px" y="0px"
	 width="85.75px" height="85.75px" viewBox="0 0 85.75 85.75" style="enable-background:new 0 0 85.75 85.75;" xml:space="preserve"
	>
<g>
	<path d="M73.607,11.663l-60.702,0.108L0,63.806v10.281h85.75v-10.5L73.607,11.663z M76.167,42.587H56.093l-1.386-14h18.461
		L76.167,42.587z M70.168,14.587l2.625,12.25h-18.26l-1.213-12.25H70.168z M35.385,14.587h16.176l1.213,12.25H34.23L35.385,14.587z
		 M52.945,28.587l1.387,14H32.746l1.318-14H52.945z M17.332,14.587h16.294l-1.155,12.25H14.707L17.332,14.587z M14.333,28.587
		h17.974l-1.318,14H11.332L14.333,28.587z M29.172,61.837H7.206l3.75-17.5H30.82L29.172,61.837z M30.932,61.837l1.649-17.5h21.924
		l1.731,17.5H30.932z M57.998,61.837l-1.732-17.5h20.277l3.75,17.5H57.998z M27.244,25.123c-0.24,0.261-1.68-0.671-3.215-2.082
		c-1.536-1.411-2.588-2.768-2.348-3.028c0.24-0.26,1.68,0.671,3.215,2.082C26.434,23.506,27.484,24.861,27.244,25.123z
		 M20.945,16.591c0.24-0.261,1.68,0.671,3.216,2.082c1.536,1.411,2.586,2.767,2.347,3.028c-0.24,0.261-1.68-0.672-3.216-2.082
		C21.756,18.208,20.706,16.851,20.945,16.591z M46.494,25.123c-0.24,0.261-1.68-0.671-3.215-2.083
		c-1.537-1.411-2.588-2.767-2.348-3.028c0.24-0.261,1.68,0.672,3.217,2.082C45.684,23.505,46.734,24.861,46.494,25.123z
		 M40.195,16.59c0.24-0.261,1.68,0.671,3.216,2.082c1.536,1.411,2.587,2.768,2.347,3.027c-0.24,0.262-1.68-0.67-3.216-2.081
		S39.956,16.851,40.195,16.59z M65.744,25.122c-0.239,0.261-1.68-0.671-3.215-2.083c-1.536-1.411-2.586-2.768-2.348-3.028
		c0.239-0.261,1.68,0.671,3.217,2.082C64.934,23.504,65.984,24.859,65.744,25.122z M59.445,16.589
		c0.24-0.261,1.68,0.671,3.216,2.082c1.536,1.411,2.587,2.767,2.347,3.026c-0.24,0.262-1.68-0.67-3.215-2.082
		C60.256,18.206,59.205,16.851,59.445,16.589z M26.706,39.73c-0.274,0.297-1.918-0.767-3.671-2.377
		c-1.754-1.611-2.954-3.16-2.68-3.457c0.274-0.299,1.918,0.766,3.672,2.377C25.779,37.884,26.979,39.432,26.706,39.73z
		 M19.518,29.99c0.274-0.299,1.918,0.766,3.672,2.377c1.754,1.611,2.953,3.158,2.68,3.457c-0.273,0.298-1.918-0.766-3.671-2.377
		C20.443,31.836,19.244,30.288,19.518,29.99z M46.938,39.726c-0.273,0.299-1.918-0.766-3.672-2.377
		c-1.753-1.611-2.953-3.158-2.68-3.457c0.273-0.298,1.918,0.766,3.672,2.377S47.211,39.428,46.938,39.726z M39.75,29.99
		c0.273-0.299,1.918,0.766,3.671,2.377c1.754,1.611,2.953,3.158,2.681,3.457c-0.272,0.298-1.918-0.766-3.671-2.377
		C40.676,31.836,39.477,30.288,39.75,29.99z M68.918,39.73c-0.273,0.299-1.917-0.766-3.671-2.377
		c-1.754-1.61-2.953-3.158-2.679-3.457c0.271-0.297,1.916,0.767,3.67,2.377C67.992,37.885,69.191,39.434,68.918,39.73z
		 M61.732,29.99c0.273-0.299,1.918,0.766,3.672,2.377c1.754,1.611,2.953,3.158,2.68,3.457c-0.273,0.298-1.918-0.766-3.672-2.377
		C62.658,31.836,61.459,30.288,61.732,29.99z M24.846,58.231c-0.33,0.358-2.312-0.924-4.429-2.866
		c-2.115-1.943-3.562-3.812-3.231-4.17c0.331-0.359,2.312,0.926,4.428,2.866C23.729,56.006,25.175,57.872,24.846,58.231z
		 M16.171,46.479c0.331-0.358,2.313,0.927,4.429,2.869c2.114,1.942,3.562,3.81,3.231,4.17c-0.33,0.358-2.312-0.926-4.429-2.869
		C17.288,48.706,15.841,46.839,16.171,46.479z M47.496,58.231c-0.33,0.359-2.312-0.924-4.428-2.866
		c-2.116-1.943-3.562-3.812-3.231-4.17c0.33-0.358,2.312,0.925,4.429,2.866C46.381,56.006,47.827,57.874,47.496,58.231z
		 M38.822,46.481c0.33-0.358,2.312,0.925,4.428,2.867s3.562,3.812,3.232,4.17s-2.312-0.924-4.428-2.866
		C39.939,48.707,38.492,46.841,38.822,46.481z M72.26,58.231c-0.33,0.359-2.312-0.924-4.428-2.866
		c-2.116-1.943-3.562-3.812-3.232-4.17s2.312,0.925,4.428,2.866C71.145,56.006,72.59,57.874,72.26,58.231z M63.585,46.479
		c0.331-0.357,2.313,0.927,4.429,2.869c2.116,1.942,3.562,3.812,3.231,4.17s-2.312-0.926-4.429-2.869
		C64.701,48.708,63.255,46.84,63.585,46.479z"/>
</g>
<g>
</g>
<g>
</g>
<g>
</g>
<g>
</g>
<g>
</g>
<g>
</g>
<g>
</g>
<g>
</g>
<g>
</g>
<g>
</g>
<g>
</g>
<g>
</g>
<g>
</g>
<g>
</g>
<g>
</g>
</svg>
