<?xml version="1.0" encoding="iso-8859-1"?>
<!-- Generator: Adobe Illustrator 16.0.0, SVG Export Plug-In . SVG Version: 6.00 Build 0)  -->
<!DOCTYPE svg PUBLIC "-//W3C//DTD SVG 1.1//EN" "http://www.w3.org/Graphics/SVG/1.1/DTD/svg11.dtd">
<svg version="1.1" id="Capa_1" xmlns="http://www.w3.org/2000/svg" xmlns:xlink="http://www.w3.org/1999/xlink" x="0px" y="0px"
	 width="571.024px" height="571.025px" viewBox="0 0 571.024 571.025" style="enable-background:new 0 0 571.024 571.025;"
	 xml:space="preserve">
<g>
	<path d="M210.385,489.925c-78.7-87.047,1.434-141.268-38.585-209.533c-23.16-39.512-59.297-46.502-87.325-44.466
		c-3.768,38.432-13.971,117.571,3.978,155.228c0,0-43.309-47.277-41.951-135.28C60.674,134.468,166.043,36.166,293.578,36.166
		c137.165,0,248.75,112.78,248.75,249.945c0,137.164-111.585,248.748-248.75,248.748c-6.455,0-12.938-0.248-19.383-0.744
		l32.541-74.941l-26.316-11.428l-40.249,92.689c-1.769,4.082-1.549,8.76,0.603,12.65c2.151,3.893,5.986,6.57,10.385,7.238
		c13.961,2.143,28.238,3.223,42.429,3.223c152.981,0,277.437-125.049,277.437-278.029S446.56,7.478,293.578,7.478
		c-148.917,0-270.762,116.796-277.13,264.136c-16.859,23.419-28.783,63.179,5.871,122.304
		C79.971,492.269,210.385,489.925,210.385,489.925z"/>
	<path d="M284.886,234.808L237.36,383.886c-4.877,10.328-0.459,22.654,9.869,27.531l102.844,48.568
		c10.328,4.877,22.654,0.459,27.531-9.869l84.924-131.418c4.877-10.326,0.459-22.652-9.868-27.529l-140.253-66.23
		C302.089,220.062,289.763,224.48,284.886,234.808z M363.69,420.464l-2.209,4.676c-1.826,3.873-6.454,5.527-10.327,3.699
		l-79.474-37.531c-3.873-1.826-5.527-6.455-3.701-10.328l2.209-4.676c1.827-3.873,6.455-5.527,10.328-3.701l79.474,37.533
		C363.862,411.962,365.517,416.591,363.69,420.464z M386.497,373.283l-2.209,4.676c-1.826,3.873-6.454,5.527-10.327,3.701
		l-79.474-37.533c-3.873-1.826-5.527-6.455-3.701-10.328l2.209-4.676c1.826-3.873,6.455-5.527,10.327-3.701l79.475,37.533
		C386.669,364.791,388.333,369.41,386.497,373.283z M349.939,293.378c4.476-9.467,15.769-13.522,25.235-9.047
		c9.468,4.466,13.521,15.77,9.047,25.236c-4.466,9.467-15.769,13.521-25.235,9.045C349.519,314.148,345.474,302.845,349.939,293.378
		z"/>
	<path d="M389.031,135.338c-5.164-2.438-11.322-0.229-13.761,4.934l-39.741,84.15l18.704,8.826l39.742-84.15
		C396.404,143.935,394.195,137.777,389.031,135.338z"/>
	<path d="M473.182,175.071c-5.164-2.438-11.332-0.229-13.771,4.934l-39.741,84.15l18.704,8.826l39.741-84.15
		C480.554,183.677,478.345,177.509,473.182,175.071z"/>
</g>
<g>
</g>
<g>
</g>
<g>
</g>
<g>
</g>
<g>
</g>
<g>
</g>
<g>
</g>
<g>
</g>
<g>
</g>
<g>
</g>
<g>
</g>
<g>
</g>
<g>
</g>
<g>
</g>
<g>
</g>
</svg>
