<?xml version="1.0" encoding="iso-8859-1"?>
<!-- Generator: Adobe Illustrator 16.0.0, SVG Export Plug-In . SVG Version: 6.00 Build 0)  -->
<!DOCTYPE svg PUBLIC "-//W3C//DTD SVG 1.1//EN" "http://www.w3.org/Graphics/SVG/1.1/DTD/svg11.dtd">
<svg version="1.1" id="Capa_1" xmlns="http://www.w3.org/2000/svg" xmlns:xlink="http://www.w3.org/1999/xlink" x="0px" y="0px"
	 width="576.58px" height="576.58px" viewBox="0 0 576.58 576.58" style="enable-background:new 0 0 576.58 576.58;"
	 xml:space="preserve">
<g>
	<path d="M57.814,461.416h-4.781h-24.48h-4.208c-6.588,0-11.953,5.364-11.953,11.953v23.906c0,6.589,5.365,11.953,11.953,11.953
		h4.15h29.319c6.588,0,11.953-5.364,11.953-11.953V478.15v-4.781C69.768,466.78,64.403,461.416,57.814,461.416z"/>
	<path d="M509.346,509.229l0.297-31.078v-4.781c0-11.857,9.658-21.516,21.516-21.516h26.297v-9.562V432.26l-0.153-1.176
		c-0.21-0.852-14.793-68.879-102.223-76.434L362.447,247.35c0,0-208.797-20.617-282.725,64.557
		c-14.927,17.193-25.389,33.956-32.876,50.231c-5.527-3.776-11.36-10.385-16.142-16.466c-10.758-21.593-14.047-42.648-9.734-62.816
		c9.734-45.546,55.128-72.656,55.577-72.924l-9.639-16.524c-2.161,1.262-53.005,31.441-64.604,85.288
		c-6.684,31.031,1.214,63.131,23.17,95.491l10.146,19.221c-6.56,22.52-7.315,41.674-7.191,58.446h29.386
		c11.857,0,21.516,9.658,21.516,21.516v23.906c0,4.418-1.348,8.529-3.644,11.953h33.211c4.819,30.466,31.126,53.789,62.95,53.789
		c31.824,0,58.13-23.323,62.95-53.789h19.689h88.73c4.819,30.466,31.126,53.789,62.95,53.789s58.13-23.323,62.95-53.789H509.346z
		 M88.893,341.397c0,0,38.25-48.1,143.438-61.43v85.823H88.893V341.397z M171.847,536.864c-17.308,0-31.729-11.733-36.137-27.636
		c-0.889-3.213-1.521-6.531-1.521-10.021c0-20.799,16.859-37.657,37.657-37.657s37.657,16.858,37.657,37.657
		c0,3.49-0.631,6.809-1.521,10.021C203.576,525.131,189.146,536.864,171.847,536.864z M526.08,397.739
		c0.02,0.02,0.029,0.028,0.039,0.048c15.28,16.295,20.636,31.499,21.716,34.941h-42.018h-5.345
		C501.122,413.938,507.319,405.628,526.08,397.739z M261.018,277.874c76.5-6.79,84.867-3.863,84.867-3.863l49.008,56.428
		l-11.656,35.353H261.018V277.874z M406.167,536.864c-17.309,0-31.729-11.733-36.137-27.636c-0.89-3.213-1.521-6.531-1.521-10.021
		c0-20.799,16.858-37.657,37.657-37.657c20.798,0,37.657,16.858,37.657,37.657c0,3.49-0.632,6.809-1.521,10.021
		C437.896,525.131,423.465,536.864,406.167,536.864z"/>
	<path d="M559.846,461.416h-2.391h-26.297c-6.589,0-11.953,5.364-11.953,11.953v23.906c0,6.589,5.364,11.953,11.953,11.953h26.297
		h7.172c6.589,0,11.953-5.364,11.953-11.953V478.15C576.58,468.913,569.083,461.416,559.846,461.416z"/>
	<path d="M109.242,232.413c5.049,8.014,17.614,9.18,25.627,4.131l116.567-53.703l2.305,3.663c3.107,4.934,9.629,6.416,14.573,3.309
		l1.224-0.775c4.935-3.108,6.417-9.629,3.309-14.573l-11.217-17.795l0,0l-34.3-54.439l-45.518-72.235
		c-3.108-4.934-9.629-6.417-14.573-3.309l-1.214,0.784c-4.935,3.108-6.417,9.629-3.309,14.573l2.305,3.663l-98.752,81.97
		c-8.013,5.049-12.383,16.887-7.334,24.901L109.242,232.413z M197.647,139.533c-7.344,4.628-17.06,2.429-21.688-4.925
		c-4.628-7.344-2.429-17.06,4.925-21.688c7.354-4.628,17.06-2.429,21.688,4.924C207.2,125.189,204.991,134.904,197.647,139.533z
		 M125.766,119.547l8.214-5.173c3.002-1.894,6.98-0.995,8.874,2.018l35.257,55.959c1.893,3.003,0.994,6.981-2.018,8.874
		l-8.214,5.173c-3.003,1.894-6.98,0.995-8.874-2.018l-35.257-55.96C121.864,125.409,122.763,121.44,125.766,119.547z
		 M97.116,137.591l8.214-5.173c3.002-1.893,6.98-0.994,8.874,2.018l35.257,55.959c1.894,3.003,0.995,6.981-2.018,8.874l-8.214,5.173
		c-3.002,1.894-6.98,0.995-8.874-2.018l-35.257-55.96C93.215,143.463,94.114,139.485,97.116,137.591z"/>
	<path d="M221.84,72.347l61.621-38.833c4.006-2.524,3.768-10.117,1.243-14.124c-2.525-4.007-9.266-7.497-13.273-4.973L209.811,53.25
		L221.84,72.347z"/>
	<path d="M325.584,100.365c4.006-2.524,3.768-10.117,1.243-14.124c-2.525-4.006-9.267-7.497-13.273-4.972l-61.621,38.833
		l12.039,19.097L325.584,100.365z"/>
</g>
<g>
</g>
<g>
</g>
<g>
</g>
<g>
</g>
<g>
</g>
<g>
</g>
<g>
</g>
<g>
</g>
<g>
</g>
<g>
</g>
<g>
</g>
<g>
</g>
<g>
</g>
<g>
</g>
<g>
</g>
</svg>
