<?xml version="1.0" encoding="iso-8859-1"?>
<!-- Generator: Adobe Illustrator 16.0.0, SVG Export Plug-In . SVG Version: 6.00 Build 0)  -->
<!DOCTYPE svg PUBLIC "-//W3C//DTD SVG 1.1//EN" "http://www.w3.org/Graphics/SVG/1.1/DTD/svg11.dtd">
<svg version="1.1" id="Capa_1" xmlns="http://www.w3.org/2000/svg" xmlns:xlink="http://www.w3.org/1999/xlink" x="0px" y="0px"
	 width="471.795px" height="471.795px" viewBox="0 0 471.795 471.795" style="enable-background:new 0 0 471.795 471.795;"
	 xml:space="preserve">
<g>
	<path d="M145.053,15.53v140.703h38.25V15.53c0-8.578-10.548-15.53-19.125-15.53C155.6,0,145.053,6.953,145.053,15.53z"/>
	<path d="M288.49,15.53v140.703h38.25V15.53C326.74,6.952,316.193,0,307.615,0S288.49,6.953,288.49,15.53z"/>
	<path d="M393.678,175.358H78.115c-10.567,0-19.125,8.558-19.125,19.125s8.558,19.125,19.125,19.125h11.303l29.998,224.193
		c0,17.154,13.904,33.994,31.06,33.994h170.844c17.155,0,31.059-16.84,31.059-33.994l29.998-224.193h11.304
		c10.566,0,19.125-8.558,19.125-19.125S404.244,175.358,393.678,175.358z M235.896,220.818c15.729,0,28.477,12.747,28.477,28.477
		c0,15.721-12.747,28.477-28.477,28.477c-15.73,0-28.478-12.746-28.478-28.477C207.419,233.565,220.166,220.818,235.896,220.818z
		 M312.396,402.773c0,6.436-5.212,11.646-11.647,11.646H171.043c-6.436,0-11.646-5.213-11.646-11.646v-14.957
		c0-6.436,5.212-11.646,11.646-11.646h129.706c6.437,0,11.647,5.213,11.647,11.646V402.773z M312.396,345.398
		c0,6.436-5.212,11.646-11.647,11.646H171.043c-6.436,0-11.646-5.213-11.646-11.646v-14.955c0-6.436,5.212-11.647,11.646-11.647
		h129.706c6.437,0,11.647,5.212,11.647,11.647V345.398z"/>
</g>
<g>
</g>
<g>
</g>
<g>
</g>
<g>
</g>
<g>
</g>
<g>
</g>
<g>
</g>
<g>
</g>
<g>
</g>
<g>
</g>
<g>
</g>
<g>
</g>
<g>
</g>
<g>
</g>
<g>
</g>
</svg>
