<?xml version="1.0" encoding="iso-8859-1"?>
<!-- Generator: Adobe Illustrator 16.0.0, SVG Export Plug-In . SVG Version: 6.00 Build 0)  -->
<!DOCTYPE svg PUBLIC "-//W3C//DTD SVG 1.1//EN" "http://www.w3.org/Graphics/SVG/1.1/DTD/svg11.dtd">
<svg version="1.1" id="Capa_1" xmlns="http://www.w3.org/2000/svg" xmlns:xlink="http://www.w3.org/1999/xlink" x="0px" y="0px"
	 width="553.562px" height="553.562px" viewBox="0 0 553.562 553.562" style="enable-background:new 0 0 553.562 553.562;"
	 xml:space="preserve">
<g>
	<path d="M455.193,271.537V250.04H346.727l0.344-76.022l32.427-32.809h75.792v-21.717H346.707L281.539,0.029L270.446,0
		l-64.7,119.502H96.581v22.175h75.438l33.727,32.35l-0.229,75.792l-108.936,0.334v21.716h43.777l65.159,43.107l-54.975,238.584
		h22.74l102.653-151.709l103.342,151.701h22.061l-53.962-238.586l64.136-43.442h43.682V271.537z M324.981,304.098l-97.739,0.01
		v-32.581h97.739V304.098z M325.144,141.219l0.076,10.863h-97.986v-10.863H325.144z M303.484,173.798l-27.147,22.396l-27.607-22.396
		H303.484L303.484,173.798z M249.189,249.591l27.377-21.717l26.918,21.717H249.189z M324.981,239.187l-32.58-27.042l32.58-27.483
		V239.187z M276.566,32.847l47.956,86.655h-97.06L276.566,32.847z M260.042,212.144l-32.579,27.482v-54.975L260.042,212.144z
		 M172.603,271.537h33.249l-0.335,22.739L172.603,271.537z M183.8,499.938l43.442-152.379l32.914,43.107L183.8,499.938z
		 M238.431,325.832h76.356l-38.862,44.111L238.431,325.832z M369.322,499.602L291.379,391.67l33.603-43.777L369.322,499.602z
		 M346.927,293.713l-0.152-22.32l32.503,0.373L346.927,293.713z"/>
	<path d="M125.756,282.4h-25.111c-8.062,0-14.592,6.539-14.592,14.592v3.385c0,8.061,6.541,14.592,14.592,14.592h25.111
		c8.062,0,14.592-6.539,14.592-14.592v-3.385C140.358,288.932,133.817,282.4,125.756,282.4z"/>
	<path d="M125.756,326.176h-25.111c-8.062,0-14.592,6.541-14.592,14.594v3.385c0,8.061,6.541,14.592,14.592,14.592h25.111
		c8.062,0,14.592-6.541,14.592-14.592v-3.385C140.358,332.707,133.817,326.176,125.756,326.176z"/>
	<path d="M140.358,166.674c0-8.062-6.541-14.592-14.592-14.592h-25.111c-8.061,0-14.592,6.541-14.592,14.592v3.385
		c0,8.061,6.541,14.592,14.592,14.592h25.111c8.061,0,14.592-6.541,14.592-14.592V166.674L140.358,166.674z"/>
	<path d="M125.756,195.85h-25.111c-8.062,0-14.592,6.541-14.592,14.592v3.385c0,8.062,6.541,14.593,14.592,14.593h25.111
		c8.062,0,14.592-6.541,14.592-14.593v-3.385C140.358,202.39,133.817,195.85,125.756,195.85z"/>
	<path d="M452.918,152.072h-25.111c-8.062,0-14.593,6.541-14.593,14.592v3.385c0,8.061,6.541,14.592,14.593,14.592h25.111
		c8.061,0,14.592-6.541,14.592-14.592v-3.385C467.52,158.613,460.979,152.072,452.918,152.072z"/>
	<path d="M451.226,195.85h-25.111c-8.062,0-14.593,6.541-14.593,14.592v3.385c0,8.062,6.541,14.593,14.593,14.593h25.111
		c8.061,0,14.592-6.541,14.592-14.593v-3.385C465.817,202.39,459.286,195.85,451.226,195.85z"/>
	<path d="M451.226,282.4h-25.111c-8.062,0-14.593,6.539-14.593,14.592v3.385c0,8.061,6.541,14.592,14.593,14.592h25.111
		c8.061,0,14.592-6.539,14.592-14.592v-3.385C465.817,288.932,459.286,282.4,451.226,282.4z"/>
	<path d="M451.226,325.832h-25.111c-8.062,0-14.593,6.541-14.593,14.594v3.385c0,8.061,6.541,14.592,14.593,14.592h25.111
		c8.061,0,14.592-6.541,14.592-14.592v-3.385C465.817,332.373,459.286,325.832,451.226,325.832z"/>
</g>
<g>
</g>
<g>
</g>
<g>
</g>
<g>
</g>
<g>
</g>
<g>
</g>
<g>
</g>
<g>
</g>
<g>
</g>
<g>
</g>
<g>
</g>
<g>
</g>
<g>
</g>
<g>
</g>
<g>
</g>
</svg>
