<?xml version="1.0" encoding="iso-8859-1"?>
<!-- Generator: Adobe Illustrator 16.0.0, SVG Export Plug-In . SVG Version: 6.00 Build 0)  -->
<!DOCTYPE svg PUBLIC "-//W3C//DTD SVG 1.1//EN" "http://www.w3.org/Graphics/SVG/1.1/DTD/svg11.dtd">
<svg version="1.1" id="Capa_1" xmlns="http://www.w3.org/2000/svg" xmlns:xlink="http://www.w3.org/1999/xlink" x="0px" y="0px"
	 width="592.723px" height="592.723px" viewBox="0 0 592.723 592.723" style="enable-background:new 0 0 592.723 592.723;"
	 xml:space="preserve">
<g>
	<path d="M391.617,592.713c0-110.305-38.145-175.846-38.145-222.998s33.059-128.692,33.059-128.692s-34.674-17.107-105.876-17.107
		S171.623,242.84,171.623,242.84c32.359,44.379,31.939,130.691,31.939,130.691c0,57.709-29.242,118.908-29.242,219.191
		C238.121,592.713,391.617,592.713,391.617,592.713z M318.762,421.113c17.719,11.57,29.682,18.6,30.887,56.85h-37.199
		c-1.041-9.562-5.594-17.979-12.297-22.988L318.762,421.113z M318.111,532.736c-10.596,6.752-23.141,10.711-36.634,10.711
		c-14.478,0-27.894-4.533-38.948-12.213l18.762-32.34c5.47,4.639,12.451,7.545,20.187,7.545c6.771,0,12.995-2.189,18.121-5.842
		L318.111,532.736z M280.616,461.113c7.717,0,13.981,6.264,13.981,13.98s-6.254,13.98-13.98,13.98c-7.717,0-13.98-6.254-13.98-13.98
		C266.646,467.377,272.899,461.113,280.616,461.113z M244.805,422.395l18.551,30.477c-7.019,5-11.781,15.529-12.852,25.092h-37.198
		C214.521,439.713,226.76,433.908,244.805,422.395z"/>
	<path d="M421.1,25.771C421.1,11.532,409.557,0,395.328,0c-12.91,0-23.504,9.515-25.389,21.898
		c-5.594-3.165-11.953-5.116-18.838-5.116c-20.281,0-36.721,15.75-38.193,35.649c-5.994-3.863-13.1-6.168-20.769-6.168
		c-21.248,0-38.479,17.232-38.479,38.479c0,2.745,0.306,5.413,0.851,7.994c-4.312-1.329-8.797-2.247-13.541-2.247
		c-25.561,0-46.282,20.722-46.282,46.283s20.722,46.282,46.282,46.282c5.221,0,10.155-1.052,14.832-2.648
		c8.319,12.297,22.396,20.377,38.355,20.377c25.56,0,46.283-20.722,46.283-46.282c0-5.881-1.205-11.446-3.203-16.62
		c20.836-0.479,37.6-17.442,37.6-38.394c0-4.341-0.881-8.444-2.199-12.335c10.223-6.914,16.945-18.618,16.945-31.891
		c0-1.559-0.277-3.041-0.459-4.542c1.998,0.498,4.053,0.842,6.205,0.842C409.557,51.542,421.1,40,421.1,25.771z"/>
</g>
<g>
</g>
<g>
</g>
<g>
</g>
<g>
</g>
<g>
</g>
<g>
</g>
<g>
</g>
<g>
</g>
<g>
</g>
<g>
</g>
<g>
</g>
<g>
</g>
<g>
</g>
<g>
</g>
<g>
</g>
</svg>
