<?xml version="1.0" encoding="iso-8859-1"?>
<!-- Generator: Adobe Illustrator 16.0.0, SVG Export Plug-In . SVG Version: 6.00 Build 0)  -->
<!DOCTYPE svg PUBLIC "-//W3C//DTD SVG 1.1//EN" "http://www.w3.org/Graphics/SVG/1.1/DTD/svg11.dtd">
<svg version="1.1" id="Capa_1" xmlns="http://www.w3.org/2000/svg" xmlns:xlink="http://www.w3.org/1999/xlink" x="0px" y="0px"
	 width="528.854px" height="528.854px" viewBox="0 0 528.854 528.854" style="enable-background:new 0 0 528.854 528.854;"
	 xml:space="preserve">
<g>
	<path d="M429.944,22.577C429.944,10.108,419.837,0,407.368,0c-11.312,0-20.589,8.339-22.243,19.183
		c-4.896-2.773-10.48-4.485-16.505-4.485c-17.767,0-32.168,13.799-33.459,31.231c-5.259-3.385-11.484-5.402-18.197-5.402
		c-18.618,0-33.718,15.089-33.718,33.708c0,2.4,0.269,4.743,0.746,7c-3.777-1.167-7.707-1.97-11.857-1.97
		c-22.396,0-40.545,18.15-40.545,40.545c0,22.396,18.149,40.545,40.545,40.545c4.571,0,8.894-0.927,12.995-2.323
		c7.287,10.777,19.623,17.853,33.603,17.853c22.396,0,40.545-18.15,40.545-40.545c0-5.154-1.061-10.031-2.811-14.564
		c18.255-0.42,32.942-15.281,32.942-33.631c0-3.806-0.774-7.392-1.932-10.805c8.96-6.063,14.841-16.314,14.841-27.942
		c0-1.368-0.248-2.658-0.401-3.978c1.75,0.43,3.548,0.736,5.432,0.736C419.837,45.164,429.944,35.056,429.944,22.577z"/>
	<path d="M191.552,329.553c0.096-19.612-4.083-76.596-24.308-104.327l-12.938-17.748l19.354-10.375
		c0.87-0.469,13.311-6.971,36.204-12.441L205.589,50.72h-91.437L98.91,528.845h64.547v-4.781c0-57.423,10.251-98.857,17.49-132.153
		C185.977,368.816,191.552,348.869,191.552,329.553z"/>
	<path d="M375.429,528.845c0-105.188-33.421-158.843-33.421-200.152c0-41.311,28.965-117.523,28.965-117.523
		s-30.38-14.984-92.756-14.984c-29.099,0-51.743,4.131-67.722,8.53c-18.284,5.04-27.808,10.433-27.808,10.433
		c28.353,38.881,27.98,116.892,27.98,116.892c0,50.557-25.618,101.19-25.618,196.815h35.783
		C284.241,528.845,375.429,528.845,375.429,528.845z"/>
</g>
<g>
</g>
<g>
</g>
<g>
</g>
<g>
</g>
<g>
</g>
<g>
</g>
<g>
</g>
<g>
</g>
<g>
</g>
<g>
</g>
<g>
</g>
<g>
</g>
<g>
</g>
<g>
</g>
<g>
</g>
</svg>
