<?xml version="1.0" encoding="iso-8859-1"?>
<!-- Generator: Adobe Illustrator 16.0.0, SVG Export Plug-In . SVG Version: 6.00 Build 0)  -->
<!DOCTYPE svg PUBLIC "-//W3C//DTD SVG 1.1//EN" "http://www.w3.org/Graphics/SVG/1.1/DTD/svg11.dtd">
<svg version="1.1" id="Capa_1" xmlns="http://www.w3.org/2000/svg" xmlns:xlink="http://www.w3.org/1999/xlink" x="0px" y="0px"
	 width="430.312px" height="430.312px" viewBox="0 0 430.312 430.312" style="enable-background:new 0 0 430.312 430.312;"
	 xml:space="preserve">
<g>
	<polygon points="349.031,258.188 358.594,258.188 358.604,258.188 358.594,210.375 349.031,210.375 81.281,210.375 71.719,210.375 
		71.719,258.188 81.281,258.188 	"/>
	<path d="M358.594,47.812h-9.562H81.281h-9.562c-5.278,0-9.562,7.411-9.562,14.344S66.44,76.5,71.719,76.5h9.562v114.75h267.75V76.5
		h9.562c5.278,0,9.562-7.411,9.562-14.344S363.872,47.812,358.594,47.812z"/>
	<path d="M62.156,415.969c0,7.038,4.284,14.344,9.562,14.344h9.562h267.75h9.562c5.278,0,9.562-7.306,9.562-14.344
		s-4.284-14.344-9.562-14.344h-9.562V277.312H81.281v124.312h-9.562C66.44,401.625,62.156,408.931,62.156,415.969z"/>
	<rect x="109.969" width="47.812" height="28.688"/>
</g>
<g>
</g>
<g>
</g>
<g>
</g>
<g>
</g>
<g>
</g>
<g>
</g>
<g>
</g>
<g>
</g>
<g>
</g>
<g>
</g>
<g>
</g>
<g>
</g>
<g>
</g>
<g>
</g>
<g>
</g>
</svg>
