<?xml version="1.0" encoding="iso-8859-1"?>
<!-- Generator: Adobe Illustrator 16.0.0, SVG Export Plug-In . SVG Version: 6.00 Build 0)  -->
<!DOCTYPE svg PUBLIC "-//W3C//DTD SVG 1.1//EN" "http://www.w3.org/Graphics/SVG/1.1/DTD/svg11.dtd">
<svg version="1.1" id="Capa_1" xmlns="http://www.w3.org/2000/svg" xmlns:xlink="http://www.w3.org/1999/xlink" x="0px" y="0px"
	 width="558.257px" height="558.257px" viewBox="0 0 558.257 558.257" style="enable-background:new 0 0 558.257 558.257;"
	 xml:space="preserve">
<g>
	<path d="M150.172,244.799c-0.402-57.499-70.59-61.554-53.818-145.159c0,0-82.285,47.019-81.712,129.849
		c0.573,82.831,61.688,84.36,68.86,84.313c0.449,0,1.109-0.048,1.951-0.153C65.066,268.782,64.53,209.991,64.53,209.991
		c2.792,30.179,31.021,72.436,47.66,95.032C130.445,295.872,150.402,278.076,150.172,244.799z"/>
	<path d="M145.847,311.411c0,0-19.214,6.393-11.714,29.143c6.82,20.688,29.93,12.195,29.93,12.195l66.049-21.773
		c0,0,20.021-7.672,23.916-0.066c5.689,11.389-15.941,21.602-15.941,21.602l-76.299,42.113L34.251,370.718
		c0,0-26.202-7.622-32.735,10.206c-4.301,12.672-0.134,22.005,21.355,29.756c22.768,7.966,134.363,47.938,134.363,47.938H295.02
		l154.388-115.124l108.85-3.537V209.991h-190.35L145.847,311.411z"/>
</g>
<g>
</g>
<g>
</g>
<g>
</g>
<g>
</g>
<g>
</g>
<g>
</g>
<g>
</g>
<g>
</g>
<g>
</g>
<g>
</g>
<g>
</g>
<g>
</g>
<g>
</g>
<g>
</g>
<g>
</g>
</svg>
