<?xml version="1.0" encoding="iso-8859-1"?>
<!-- Generator: Adobe Illustrator 16.0.0, SVG Export Plug-In . SVG Version: 6.00 Build 0)  -->
<!DOCTYPE svg PUBLIC "-//W3C//DTD SVG 1.1//EN" "http://www.w3.org/Graphics/SVG/1.1/DTD/svg11.dtd">
<svg version="1.1" id="Capa_1" xmlns="http://www.w3.org/2000/svg" xmlns:xlink="http://www.w3.org/1999/xlink" x="0px" y="0px"
	 width="574.859px" height="574.86px" viewBox="0 0 574.859 574.86" style="enable-background:new 0 0 574.859 574.86;"
	 xml:space="preserve">
<g>
	<path d="M181.688,521.185V353.841H19.125v167.344c0,10.566,13.34,23.906,23.906,23.906h124.312
		C177.91,545.091,181.688,531.751,181.688,521.185z M66.938,502.06c0,2.64-2.142,4.781-4.781,4.781s-4.781-2.142-4.781-4.781
		V377.748c0-2.64,2.142-4.781,4.781-4.781s4.781,2.142,4.781,4.781V502.06z M105.188,502.06c0,2.64-2.142,4.781-4.781,4.781
		s-4.781-2.142-4.781-4.781V377.748c0-2.64,2.142-4.781,4.781-4.781s4.781,2.142,4.781,4.781V502.06z M143.438,502.06
		c0,2.64-2.142,4.781-4.781,4.781s-4.781-2.142-4.781-4.781V377.748c0-2.64,2.142-4.781,4.781-4.781s4.781,2.142,4.781,4.781V502.06
		z"/>
	<path d="M19.125,334.716h162.562v-19.125h19.125v-19.125h-57.375c0-10.566-6.828-19.125-15.243-19.125H77.399
		c-8.415,0-15.243,8.559-15.243,19.125H0v19.125h19.125V334.716z"/>
	<path d="M357.007,191.556C370.968,329.811,243.892,542.08,243.892,542.08c145.235-78.212,169.189-207.363,169.189-207.363
		c42.333,66.479,44.475,228.305,44.475,228.305c80.995-194.109,0-377.049,0-377.049l117.304,48.874
		c-19.546-74.014-141.047-125.68-141.047-125.68c-110.322,50.27-249.974,44.686-249.974,44.686
		C259.249,226.469,357.007,191.556,357.007,191.556z"/>
	<circle cx="369.782" cy="55.128" r="43.29"/>
	<path d="M94.43,229.529c5.977-2.391,27.492-13.148,28.764,0c1.271,13.148,11.876,9.562,19.048,0s3.586-25.102,11.953-23.906
		s15.539-10.758,17.93-21.735c2.391-10.978-22.711-18.905-33.469-21.458s-20.32,13.321-27.492,13.321s-17.93-20.33-25.102-10.768
		s-11.953,40.641-11.953,40.641c-10.758-5.977-21.516,7.172-25.102,16.734S88.453,231.919,94.43,229.529z"/>
</g>
<g>
</g>
<g>
</g>
<g>
</g>
<g>
</g>
<g>
</g>
<g>
</g>
<g>
</g>
<g>
</g>
<g>
</g>
<g>
</g>
<g>
</g>
<g>
</g>
<g>
</g>
<g>
</g>
<g>
</g>
</svg>
