<?xml version="1.0" encoding="iso-8859-1"?>
<!-- Generator: Adobe Illustrator 16.0.0, SVG Export Plug-In . SVG Version: 6.00 Build 0)  -->
<!DOCTYPE svg PUBLIC "-//W3C//DTD SVG 1.1//EN" "http://www.w3.org/Graphics/SVG/1.1/DTD/svg11.dtd">
<svg version="1.1" id="Capa_1" xmlns="http://www.w3.org/2000/svg" xmlns:xlink="http://www.w3.org/1999/xlink" x="0px" y="0px"
	 width="356.107px" height="356.107px" viewBox="0 0 356.107 356.107" style="enable-background:new 0 0 356.107 356.107;"
	 xml:space="preserve">
<g>
	<path d="M180.742,2.689c-0.898,0-1.792,0.02-2.688,0.034c-0.896-0.014-1.79-0.034-2.689-0.034C78.675,2.689,0,81.356,0,178.054
		c0,96.697,78.667,175.364,175.365,175.364c0.899,0,1.793-0.02,2.689-0.034c0.896,0.015,1.79,0.034,2.688,0.034
		c96.699,0,175.365-78.667,175.365-175.364C356.107,81.356,277.434,2.689,180.742,2.689z M141.488,21.363
		c-13.68,14.925-32.948,39.495-47.033,71.82C79.785,86.47,66.938,78.716,56.152,71.17C78.315,46.473,107.91,28.624,141.488,21.363z
		 M46.635,82.826c11.79,8.318,25.995,16.935,42.285,24.33c-7.305,20.243-12.255,43.08-12.735,68.085H15.143
		C15.75,140.651,27.383,108.784,46.635,82.826z M51,279.108c-20.055-24.638-32.843-55.335-35.385-88.867h60.802
		c1.335,24.646,6.968,46.957,14.737,66.592C75.675,263.613,62.19,271.496,51,279.108z M61.118,290.403
		c10.185-6.81,22.245-13.785,36.015-19.815c13.41,28.344,30.57,50.07,43.32,63.886C109.793,327.633,82.41,312.048,61.118,290.403z
		 M170.108,338.156c-1.628-0.052-3.247-0.143-4.86-0.247c-8.189-7.418-34.867-33.405-53.888-72.938
		c17.505-6.225,37.23-10.574,58.747-11.279L170.108,338.156L170.108,338.156z M170.108,238.691
		c-23.85,0.72-45.592,5.588-64.8,12.525c-7.23-18.105-12.503-38.565-13.845-60.976h78.645V238.691z M170.108,175.241H91.193
		c0.48-22.703,5.032-43.62,11.767-62.287c19.927,7.545,42.458,12.907,67.148,13.86V175.241z M170.108,111.814
		c-22.56-0.945-43.215-5.865-61.56-12.78c19.537-44.385,49.492-73.672,57.338-80.857c1.409-0.09,2.812-0.172,4.222-0.217V111.814z
		 M309.473,82.826c19.254,25.958,30.885,57.825,31.492,92.415h-61.041c-0.48-25.005-5.432-47.842-12.736-68.085
		C283.479,99.761,297.684,91.144,309.473,82.826z M299.955,71.171c-10.785,7.545-23.633,15.3-38.303,22.013
		c-14.084-32.325-33.352-56.895-47.033-71.82C248.197,28.624,277.793,46.473,299.955,71.171z M186,17.958
		c1.41,0.045,2.812,0.128,4.223,0.217c7.844,7.185,37.799,36.472,57.338,80.857c-18.346,6.915-39,11.835-61.561,12.78V17.958
		L186,17.958z M186,126.814c24.689-0.953,47.221-6.315,67.148-13.86c6.734,18.667,11.287,39.585,11.766,62.287H186V126.814z
		 M186,190.241h78.645c-1.342,22.41-6.615,42.87-13.844,60.976c-19.209-6.938-40.951-11.806-64.801-12.525V190.241L186,190.241z
		 M190.859,337.909c-1.611,0.105-3.232,0.195-4.859,0.247v-84.465c21.518,0.705,41.242,5.055,58.746,11.279
		C225.729,304.503,199.051,330.491,190.859,337.909z M215.654,334.473c12.75-13.815,29.91-35.542,43.32-63.886
		c13.77,6.03,25.83,13.006,36.016,19.815C273.697,312.048,246.314,327.633,215.654,334.473z M305.107,279.108
		c-11.189-7.612-24.674-15.495-40.154-22.275c7.77-19.635,13.402-41.946,14.736-66.592h60.803
		C337.949,223.774,325.162,254.47,305.107,279.108z"/>
</g>
<g>
</g>
<g>
</g>
<g>
</g>
<g>
</g>
<g>
</g>
<g>
</g>
<g>
</g>
<g>
</g>
<g>
</g>
<g>
</g>
<g>
</g>
<g>
</g>
<g>
</g>
<g>
</g>
<g>
</g>
</svg>
