<?xml version="1.0" encoding="iso-8859-1"?>
<!-- Generator: Adobe Illustrator 16.0.0, SVG Export Plug-In . SVG Version: 6.00 Build 0)  -->
<!DOCTYPE svg PUBLIC "-//W3C//DTD SVG 1.1//EN" "http://www.w3.org/Graphics/SVG/1.1/DTD/svg11.dtd">
<svg version="1.1" id="Capa_1" xmlns="http://www.w3.org/2000/svg" xmlns:xlink="http://www.w3.org/1999/xlink" x="0px" y="0px"
	 width="489.887px" height="489.887px" viewBox="0 0 489.887 489.887" style="enable-background:new 0 0 489.887 489.887;"
	 xml:space="preserve">
<g>
	<path d="M244.943,0C109.663,0,0,109.663,0,244.943c0,135.28,109.663,244.943,244.943,244.943
		c135.28,0,244.943-109.663,244.943-244.943C489.887,109.672,380.224,0,244.943,0z M411.666,267.195l-2.965,1.501L344.9,300.989
		l-21.458-41.77l-5.288-10.298l6.368-3.271l60.187-30.925L411.666,267.195z M175.625,96.906l2.821,1.75l60.731,37.752
		l-24.557,40.029l-6.053,9.869l-6.101-3.739l-57.681-35.381L175.625,96.906z M130.193,309.021v66.239v5.184
		c0,0-61.439-41.101-61.439-105.437c6.521-13.043,25.857-41.951,25.857-41.951l-38.269-26.641l102.893-6.235l32.704,88.434
		l-40.478-23.17l-21.267,19.775V309.021z M216.256,388.008h-66.938v-7.555v-49.82h51.179h15.759V388.008z M235.744,181.027
		l39.35-19.823l-8.577-23.82l-20.225-12.575l-60.426-37.571l-0.229-0.143c0,0,31.824-15.998,69.386-15.998
		c18.025,0,37.389,3.691,55.166,14.602c7.707,12.374,24.489,40.296,24.489,40.296l42.869-18.924l-48.339,90.719L235.744,181.027z
		 M351.364,388.008c-5.029,0.058-12.192,0.076-19.431,0.076c-13.741,0-27.722-0.066-27.722-0.066l-6.082,46.464l-52.431-88.415
		l62.854-71.164l-3.49,43.921l24.815,5.029l21.238-10.758l63.485-32.139l0.248-0.125
		C414.85,280.831,408.596,358.604,351.364,388.008z"/>
</g>
<g>
</g>
<g>
</g>
<g>
</g>
<g>
</g>
<g>
</g>
<g>
</g>
<g>
</g>
<g>
</g>
<g>
</g>
<g>
</g>
<g>
</g>
<g>
</g>
<g>
</g>
<g>
</g>
<g>
</g>
</svg>
