<?xml version="1.0" encoding="iso-8859-1"?>
<!-- Generator: Adobe Illustrator 16.0.0, SVG Export Plug-In . SVG Version: 6.00 Build 0)  -->
<!DOCTYPE svg PUBLIC "-//W3C//DTD SVG 1.1//EN" "http://www.w3.org/Graphics/SVG/1.1/DTD/svg11.dtd">
<svg version="1.1" id="Capa_1" xmlns="http://www.w3.org/2000/svg" xmlns:xlink="http://www.w3.org/1999/xlink" x="0px" y="0px"
	 width="601.71px" height="601.711px" viewBox="0 0 601.71 601.711" style="enable-background:new 0 0 601.71 601.711;"
	 xml:space="preserve">
<g>
	<path d="M372.568,391.422c8.425,6.397,20.426,4.705,26.795-3.691c6.378-8.424,4.724-20.416-3.691-26.794L226.194,232.512
		c-6.799-5.145-16.161-5.173-22.998-0.086L24.244,366.119c-8.463,6.321-10.194,18.312-3.873,26.775
		c3.758,5.021,9.515,7.679,15.338,7.679c3.978,0,7.994-1.243,11.427-3.796L214.557,271.7L372.568,391.422z"/>
	<polygon points="482.241,496.112 469.188,209.648 454.452,209.648 443.254,496.112 442.891,601.711 482.738,601.711 	"/>
	<path d="M580.275,267.989l-75.582-84.379c-4.227-3.969-11.437-4.284-15.404-0.058l-8.626,9.19
		c-3.969,4.227-3.193,11.408,1.033,15.376l89.313,69.749c4.227,3.969,7.258,6.761,11.227,2.534l0.956-1.023
		C587.169,275.151,584.501,271.958,580.275,267.989z"/>
	<path d="M432.315,179.871l-3.099-12.211c-1.425-5.623-8.559-8.664-14.181-7.239l-109.549,38.422
		c-5.623,1.425-12.297,3.156-10.873,8.778l0.344,1.358c1.425,5.623,8.233,4.408,13.856,2.983L423.297,193
		C428.929,191.566,433.74,185.494,432.315,179.871z"/>
	<path d="M482.939,129.458l11.676-115.448c1.07-5.699,1.846-12.575-3.854-13.636l-1.378-0.258c-5.689-1.081-6.999,5.69-8.07,11.399
		L449.9,123.271c-1.07,5.699,2.42,12.623,8.119,13.693l12.383,2.324C476.111,140.349,481.877,135.157,482.939,129.458z"/>
	<circle cx="461.012" cy="168.252" r="15.835"/>
	<path d="M234.112,477.398h76.5v105.188h47.812V401.529L213.362,294.162L61.987,401.529v181.057h172.125V477.398z M176.737,496.523
		h-76.5v-66.938h76.5V496.523z"/>
</g>
<g>
</g>
<g>
</g>
<g>
</g>
<g>
</g>
<g>
</g>
<g>
</g>
<g>
</g>
<g>
</g>
<g>
</g>
<g>
</g>
<g>
</g>
<g>
</g>
<g>
</g>
<g>
</g>
<g>
</g>
</svg>
