<?xml version="1.0" encoding="iso-8859-1"?>
<!-- Generator: Adobe Illustrator 16.0.0, SVG Export Plug-In . SVG Version: 6.00 Build 0)  -->
<!DOCTYPE svg PUBLIC "-//W3C//DTD SVG 1.1//EN" "http://www.w3.org/Graphics/SVG/1.1/DTD/svg11.dtd">
<svg version="1.1" id="Capa_1" xmlns="http://www.w3.org/2000/svg" xmlns:xlink="http://www.w3.org/1999/xlink" x="0px" y="0px"
	 width="449.438px" height="449.438px" viewBox="0 0 449.438 449.438" style="enable-background:new 0 0 449.438 449.438;"
	 xml:space="preserve">
<g>
	<path d="M272.533,0h-95.625c-10.567,0-19.125,8.558-19.125,19.125V38.25h-57.375c-10.567,0-19.125,8.558-19.125,19.125
		S89.84,76.5,100.407,76.5h248.625c10.566,0,19.125-8.558,19.125-19.125s-8.559-19.125-19.125-19.125h-57.375V19.125
		C291.658,8.558,283.099,0,272.533,0z"/>
	<path d="M358.595,86.063h-28.688H119.532H90.844c-10.567,0-19.125,8.558-19.125,19.125v9.562c0,10.567,8.558,19.125,19.125,19.125
		h9.562v296.438c0,10.567,8.558,19.125,19.125,19.125h210.375c10.567,0,19.125-8.558,19.125-19.125V133.875h9.562
		c10.567,0,19.125-8.558,19.125-19.125v-9.562C377.72,94.621,369.163,86.063,358.595,86.063z M176.908,415.375h-38.25V207.984
		c0-9.237,7.497-16.734,16.734-16.734h4.781c9.237,0,16.734,7.497,16.734,16.734V415.375L176.908,415.375z M243.845,415.375h-38.25
		V207.984c0-9.237,7.497-16.734,16.734-16.734h4.78c9.237,0,16.734,7.497,16.734,16.734L243.845,415.375L243.845,415.375z
		 M310.783,415.375h-38.25V207.984c0-9.237,7.496-16.734,16.733-16.734h4.781c9.237,0,16.733,7.497,16.733,16.734v207.391H310.783z"
		/>
</g>
<g>
</g>
<g>
</g>
<g>
</g>
<g>
</g>
<g>
</g>
<g>
</g>
<g>
</g>
<g>
</g>
<g>
</g>
<g>
</g>
<g>
</g>
<g>
</g>
<g>
</g>
<g>
</g>
<g>
</g>
</svg>
