<?xml version="1.0" encoding="iso-8859-1"?>
<!-- Generator: Adobe Illustrator 16.0.0, SVG Export Plug-In . SVG Version: 6.00 Build 0)  -->
<!DOCTYPE svg PUBLIC "-//W3C//DTD SVG 1.1//EN" "http://www.w3.org/Graphics/SVG/1.1/DTD/svg11.dtd">
<svg version="1.1" id="Capa_1" xmlns="http://www.w3.org/2000/svg" xmlns:xlink="http://www.w3.org/1999/xlink" x="0px" y="0px"
	 width="548.457px" height="548.457px" viewBox="0 0 548.457 548.457" style="enable-background:new 0 0 548.457 548.457;"
	 xml:space="preserve">
<g>
	<path d="M151.57,525.938h179.431c-4.16-9.046-6.551-19.077-6.551-29.682c0-39.331,31.996-71.327,71.327-71.327
		c7.898,0,15.481,1.349,22.586,3.729l18.265-291.771c0-12.594-10.213-22.137-22.807-22.137H128.764
		c-12.594,0-22.807,9.543-22.807,22.137l22.807,364.226C128.764,513.717,138.977,525.938,151.57,525.938z M263.031,382.5h-47.812
		v-0.22v-38.03h34.932h12.881V382.5z M388.529,317.973c0,0-4.035,50.212-40.984,69.193c-3.242,0.039-7.87,0.048-12.546,0.048
		c-8.874,0-17.901-0.038-17.901-0.038l-3.931,29.998l-33.851-57.079l40.583-45.947l-2.257,28.353l16.018,3.251l13.712-6.942
		l40.985-20.741L388.529,317.973z M386.473,309.165l-1.912,0.966l-41.187,20.847l-13.846-26.967l-3.414-6.646l4.111-2.113
		l38.862-19.967L386.473,309.165z M285.34,182.577c11.638,0,24.136,2.381,35.62,9.429c4.973,7.985,15.816,26.01,15.816,26.01
		l27.674-12.221l-31.202,58.57l-60.34-10.825l25.398-12.794l-5.537-15.376l-13.053-8.119L240.702,193l-0.153-0.096
		C240.549,192.904,261.089,182.577,285.34,182.577z M234.095,199.235l1.817,1.128l39.206,24.375l-15.854,25.838l-3.911,6.369
		l-3.94-2.419l-37.236-22.845L234.095,199.235z M223.509,265.904l21.334,57.088l-25.905-14.955l-13.282,12.766v15.367v42.764v3.347
		c0,0-40.115-26.536-40.115-68.066c4.208-8.415,16.247-27.081,16.247-27.081l-24.7-17.202L223.509,265.904z"/>
	<path d="M100.468,61.057v11.762c0,12.594,10.213,22.807,22.807,22.807h279.512c12.594,0,22.807-10.213,22.807-22.807V61.057
		c0-12.594-10.213-22.807-22.807-22.807h-44.504c0.201-1.205,0.373-2.419,0.373-3.682V22.807C358.656,10.213,348.443,0,335.849,0
		H209.337c-12.594,0-22.807,10.213-22.807,22.807v11.762c0,1.262,0.172,2.477,0.373,3.682h-63.629
		C110.681,38.25,100.468,48.463,100.468,61.057z"/>
	<path d="M447.989,496.256c0-21.172-12.699-39.407-30.858-47.593c-6.521-2.936-13.731-4.609-21.344-4.609
		c-28.783,0-52.201,23.419-52.201,52.202c0,11.025,3.452,21.238,9.313,29.682c9.438,13.588,25.131,22.52,42.888,22.52
		C424.57,548.457,447.989,525.039,447.989,496.256z"/>
</g>
<g>
</g>
<g>
</g>
<g>
</g>
<g>
</g>
<g>
</g>
<g>
</g>
<g>
</g>
<g>
</g>
<g>
</g>
<g>
</g>
<g>
</g>
<g>
</g>
<g>
</g>
<g>
</g>
<g>
</g>
</svg>
