<?xml version="1.0" encoding="iso-8859-1"?>
<!-- Generator: Adobe Illustrator 16.0.0, SVG Export Plug-In . SVG Version: 6.00 Build 0)  -->
<!DOCTYPE svg PUBLIC "-//W3C//DTD SVG 1.1//EN" "http://www.w3.org/Graphics/SVG/1.1/DTD/svg11.dtd">
<svg version="1.1" id="Capa_1" xmlns="http://www.w3.org/2000/svg" xmlns:xlink="http://www.w3.org/1999/xlink" x="0px" y="0px"
	 width="510.81px" height="510.81px" viewBox="0 0 510.81 510.81" style="enable-background:new 0 0 510.81 510.81;"
	 xml:space="preserve">
<g>
	<rect x="136.906" y="334.448" width="86.062" height="105.188"/>
	<path d="M26.144,286.636c0,90.442,91.637,148.219,91.637,148.219v-7.287v-93.119v-33.469l24.624-27.789l54.267,32.57
		l-48.606-124.312L3.433,190.217l53.789,37.457C57.222,227.664,35.305,268.305,26.144,286.636z"/>
	<polygon points="217.413,161.941 255.873,93.215 166.541,37.676 127.755,106.938 	"/>
	<path d="M282.707,0c-52.805,0-97.539,22.491-97.539,22.491l0.325,0.201l84.944,52.804l28.42,17.671l12.068,33.488l-55.31,27.865
		l131.378,23.571l67.951-127.525l-60.262,26.603c0,0-23.602-39.254-34.436-56.648C335.261,5.183,308.046,0,282.707,0z"/>
	<polygon points="403.873,322.094 497.718,274.587 465.035,201.902 371.464,249.973 	"/>
	<path d="M417.804,340.167l-29.863,15.118l-34.885-7.076l4.906-61.735l-88.367,100.042l73.709,124.294l8.549-65.312
		c0,0,19.66,0.096,38.977,0.096c10.164,0,20.242-0.028,27.311-0.104c80.449-41.329,89.236-150.657,89.236-150.657l-0.344,0.172
		L417.804,340.167z"/>
</g>
<g>
</g>
<g>
</g>
<g>
</g>
<g>
</g>
<g>
</g>
<g>
</g>
<g>
</g>
<g>
</g>
<g>
</g>
<g>
</g>
<g>
</g>
<g>
</g>
<g>
</g>
<g>
</g>
<g>
</g>
</svg>
