<?xml version="1.0" encoding="iso-8859-1"?>
<!-- Generator: Adobe Illustrator 16.0.0, SVG Export Plug-In . SVG Version: 6.00 Build 0)  -->
<!DOCTYPE svg PUBLIC "-//W3C//DTD SVG 1.1//EN" "http://www.w3.org/Graphics/SVG/1.1/DTD/svg11.dtd">
<svg version="1.1" id="Capa_1" xmlns="http://www.w3.org/2000/svg" xmlns:xlink="http://www.w3.org/1999/xlink" x="0px" y="0px"
	 width="554.623px" height="554.623px" viewBox="0 0 554.623 554.623" style="enable-background:new 0 0 554.623 554.623;"
	 xml:space="preserve">
<g>
	<path d="M372.938,155.987c0-23.906-17.375-23.906-17.375-23.906H72.34L0,237.622v83.682l72.34,59.401c0,0,8.205,0,21.678,0
		c4.886-16.677,20.158-28.965,38.393-28.965c18.245,0,33.507,12.288,38.393,28.965c8.568,0,17.327,0,26.201,0
		c4.886-16.677,20.157-28.965,38.393-28.965s33.497,12.288,38.393,28.965c36.165,0,65.389,0,74.53,0
		c27.799,0,24.615-31.508,24.615-31.508S372.938,182.81,372.938,155.987z M274.405,255.236l-1.453,0.736l-31.384,15.883
		l-10.557-20.54l-2.602-5.068l3.137-1.606l29.604-15.214L274.405,255.236z M124.312,264.101v11.714v32.588v2.554
		c0,0-24.404-20.215-24.404-51.867c3.203-6.416,18.542-20.636,18.542-20.636l-18.819-13.11l50.614-3.07l13.177,43.5l-22.816-11.399
		L124.312,264.101z M172.124,313.769h-38.25v-2.82v-25.867h36.653h1.597V313.769z M174.506,215.447l-3.003-1.846l-28.372-17.404
		l15.166-24.729l1.387,0.861l29.873,18.57l-12.077,19.689L174.506,215.447z M207.228,203.102l-4.217-11.714l-9.945-6.187
		l-29.73-18.475l-0.115-0.067c0,0,15.654-7.87,34.129-7.87c8.864,0,18.389,1.817,27.138,7.181
		c3.787,6.091,12.049,19.823,12.049,19.823l21.085-9.314l-23.781,44.628l-45.978-8.252L207.228,203.102z M244.752,314.667
		c-2.478,0.029-5.996,0.038-9.562,0.038c-6.761,0-13.636-0.028-13.636-0.028l-2.993,22.854l-25.79-43.49l30.925-35.008
		l-1.721,21.602l12.202,2.477l10.452-5.287l31.23-15.807l0.124-0.057C275.973,261.949,272.904,300.209,244.752,314.667z"/>
	<path d="M472.502,160.769h-80.439v219.938h53.846c4.887-16.677,20.158-28.965,38.393-28.965c18.236,0,33.498,12.288,38.393,28.965
		h31.93V267.754L472.502,160.769z M420.75,256.393v-57.375h51.062l43.109,57.375H420.75z"/>
	<path d="M132.411,361.304c-12.919,0-23.935,8.071-28.429,19.402c-1.377,3.481-2.199,7.248-2.199,11.217
		c0,16.887,13.741,30.619,30.619,30.619c16.887,0,30.629-13.741,30.629-30.619c0-3.968-0.812-7.735-2.199-11.217
		C156.356,369.365,145.33,361.304,132.411,361.304z"/>
	<path d="M235.409,361.304c-12.919,0-23.935,8.071-28.429,19.402c-1.377,3.481-2.199,7.248-2.199,11.217
		c0,16.887,13.741,30.619,30.619,30.619s30.619-13.741,30.619-30.619c0-3.968-0.813-7.735-2.19-11.217
		C259.344,369.365,248.328,361.304,235.409,361.304z"/>
	<path d="M484.303,361.304c-12.92,0-23.936,8.071-28.43,19.402c-1.377,3.481-2.199,7.248-2.199,11.217
		c0,16.887,13.742,30.619,30.629,30.619s30.619-13.741,30.619-30.619c0-3.968-0.812-7.735-2.189-11.217
		C508.236,369.365,497.221,361.304,484.303,361.304z"/>
</g>
<g>
</g>
<g>
</g>
<g>
</g>
<g>
</g>
<g>
</g>
<g>
</g>
<g>
</g>
<g>
</g>
<g>
</g>
<g>
</g>
<g>
</g>
<g>
</g>
<g>
</g>
<g>
</g>
<g>
</g>
</svg>
