<?xml version="1.0" encoding="iso-8859-1"?>
<!-- Generator: Adobe Illustrator 16.0.0, SVG Export Plug-In . SVG Version: 6.00 Build 0)  -->
<!DOCTYPE svg PUBLIC "-//W3C//DTD SVG 1.1//EN" "http://www.w3.org/Graphics/SVG/1.1/DTD/svg11.dtd">
<svg version="1.1" id="Capa_1" xmlns="http://www.w3.org/2000/svg" xmlns:xlink="http://www.w3.org/1999/xlink" x="0px" y="0px"
	 width="558.258px" height="558.258px" viewBox="0 0 558.258 558.258" style="enable-background:new 0 0 558.258 558.258;"
	 xml:space="preserve">
<g>
	<path d="M81.873,307.333c6.665,0.048,64.05,0.563,64.05-66.058c0-54.191-58.618-142.644-58.618-142.644
		S20.223,189.656,19.86,243.139C19.487,296.633,75.198,307.285,81.873,307.333z"/>
	<path d="M145.846,312.42c0,0-19.214,6.393-11.714,29.143c6.82,20.688,29.93,12.196,29.93,12.196l66.047-21.774
		c0,0,20.022-7.672,23.916-0.066c5.69,11.389-15.94,21.602-15.94,21.602l-76.299,42.113L34.251,371.727
		c0,0-26.202-7.621-32.735,10.207c-4.301,12.672-0.134,22.004,21.356,29.756c22.768,7.965,134.363,47.938,134.363,47.938h137.786
		l154.387-115.124l108.85-3.538V211H367.906L145.846,312.42z"/>
</g>
<g>
</g>
<g>
</g>
<g>
</g>
<g>
</g>
<g>
</g>
<g>
</g>
<g>
</g>
<g>
</g>
<g>
</g>
<g>
</g>
<g>
</g>
<g>
</g>
<g>
</g>
<g>
</g>
<g>
</g>
</svg>
