<?xml version="1.0" encoding="iso-8859-1"?>
<!-- Generator: Adobe Illustrator 16.0.0, SVG Export Plug-In . SVG Version: 6.00 Build 0)  -->
<!DOCTYPE svg PUBLIC "-//W3C//DTD SVG 1.1//EN" "http://www.w3.org/Graphics/SVG/1.1/DTD/svg11.dtd">
<svg version="1.1" id="Capa_1" xmlns="http://www.w3.org/2000/svg" xmlns:xlink="http://www.w3.org/1999/xlink" x="0px" y="0px"
	 width="567.941px" height="567.941px" viewBox="0 0 567.941 567.941" style="enable-background:new 0 0 567.941 567.941;"
	 xml:space="preserve">
<g>
	<path d="M124.159,325.664c68.458,0,124.16-55.703,124.16-124.161s-55.702-124.15-124.16-124.15S0,133.045,0,201.513
		C0,269.981,55.691,325.664,124.159,325.664z M220.004,179.911c-10.165-5.929-7.621,0.851-7.621,0.851s0,0,6.78,5.929
		c6.78,5.929,11.858,8.472,9.313,16.773c-2.544,8.3-6.779,1.014-15.242,7.793c-8.473,6.78,10.165,8.472,11.006,18.637
		s-10.165,5.078-15.243,15.243c-5.078,10.165-0.851,21.171-3.385,30.495c-2.544,9.314-23.715,22.022-31.403,26.259
		s-2.477-9.314,0-18.637c2.477-9.314-5.862-19.479-5.862-36.424c0-16.945-5.078-11.857-20.33-11.857
		c-15.243,0-22.022-8.472-23.715-24.566c-1.693-16.094,12.709-32.187,19.479-37.265c6.77-5.078,16.094-10.165,25.408-5.078
		c9.314,5.078,12.709,10.165,22.864,10.165c10.155,0,10.165-3.385,16.095-7.621c5.929-4.236-8.473-9.314-16.936-8.434
		c-8.472,0.88-6.78-5.116-17.786-9.352c-11.006-4.236-15.243,4.236-18.637,5.929c-3.385,1.693-15.243,6.78-16.428,0
		c-1.186-6.78,6.263-7.621,13.885-7.621c7.621,0,0.851-5.929-1.693-10.165s-7.621-4.236-11.293-7.545
		c-3.672-3.309,4.514-9.4,12.986-7.373s5.078,8.138,14.401,7.296c9.314-0.851,0-9.314,0-17.518c0-8.204,10.165-7.889,16.935-11.159
		c0.421-0.201,0.851-0.105,1.281-0.153c3.156,1.979,6.197,4.102,9.132,6.369c3.873,4.953,7.669,11.465,10.758,15.176
		c1.501,1.798,3.5,1.501,5.632,0.249c14.89,17.05,24.844,38.479,27.55,62.128C228.17,191.233,228.285,184.74,220.004,179.911z
		 M124.159,86.916c4.36,0,8.645,0.296,12.881,0.775c-1.578,3.433-3.423,5.833-3.423,5.833s-3.385,11.006-11.006,11.857
		c-7.621,0.851-16.935,0-21.171,6.78c-4.236,6.78-3.385,18.637-10.165,11.857c-6.78-6.78-0.851-7.296-7.621-14.229
		c-6.78-6.942-8.472-6.942-11.857-6.942c-0.679,0-1.415-0.822-2.113-2.113C85.89,91.917,104.451,86.916,124.159,86.916z
		 M54.515,110.708c0.899,0.87,2.448,1.846,5.039,2.926c10.165,4.236,12.508,12.622,7.822,12.288
		c-4.686-0.325-23.705,2.266-6.206,7.344c17.499,5.078,16.055,11.035,8.272,13.579c-7.783,2.544-6.12-8.453-7.813,2.553
		c-1.693,11.006-3.404,10.174-8.912,11.867c-5.508,1.693-15.673,10.165-15.673,16.094s-3.395,9.247,3.385,14.325
		c6.78,5.078-2.123,14.372-5.326,7.602c-3.844-8.128-6.541-12.613-10.767-13.454c-4.236-0.851-9.696,5.929,0,12.709
		c9.696,6.78,10.165,11.006,10.165,16.094c0,5.088,7.019,5.078,12.403,4.236c5.384-0.851,16.438,13.55,20.234,19.479
		c3.787,5.929,10.567,11.857,19.88,14.401c9.314,2.544,12.709,8.472,7.621,12.709c-5.078,4.236-5.929,14.401-11.857,16.935
		c-5.929,2.544-6.78,10.165-10.165,13.55c-1.511,1.512-2.945,3.452-4.274,5.564c-5.709-3.193-11.112-6.855-16.161-10.938
		c-0.822-8.224-1.807-17.672-6.656-21.716c-5.078-4.236-8.472-10.165-10.165-16.935c-1.693-6.78,2.544-16.935-0.851-23.715
		c-3.385-6.78-3.385-0.421-10.165-9.955c-6.78-9.524-6.78-9.524-11.006-17.155c-1.358-2.448-2.41-5.862-3.27-9.61
		C12.938,158.616,29.739,129.756,54.515,110.708z"/>
	<path d="M155.53,343.382c0,0-19.214,6.393-11.714,29.143c6.82,20.688,29.93,12.195,29.93,12.195l66.048-21.773
		c0,0,20.022-7.672,23.916-0.066c5.69,11.389-15.94,21.602-15.94,21.602l-76.299,42.113L43.935,402.689
		c0,0-26.202-7.622-32.735,10.206c-4.301,12.672-0.134,22.005,21.355,29.756c22.768,7.966,134.363,47.938,134.363,47.938h137.786
		l154.387-115.124l108.851-3.537V241.962H377.59L155.53,343.382z"/>
</g>
<g>
</g>
<g>
</g>
<g>
</g>
<g>
</g>
<g>
</g>
<g>
</g>
<g>
</g>
<g>
</g>
<g>
</g>
<g>
</g>
<g>
</g>
<g>
</g>
<g>
</g>
<g>
</g>
<g>
</g>
</svg>
